<?xml version="1.0" encoding="UTF-8"?><svg xmlns="http://www.w3.org/2000/svg" xmlns:xlink="http://www.w3.org/1999/xlink" height="285.4" preserveAspectRatio="xMidYMid meet" version="1.0" viewBox="-0.1 -0.1 285.1 285.4" width="285.1" zoomAndPan="magnify"><g id="change1_1"><path d="M285,144.9c0-1.9,0-3.9,0-5.6c-0.1-2.4-0.2-4.4-0.3-6.3c0-0.2,0-0.5,0-0.7c0-0.4-0.1-1-0.1-1.7 c-0.2-2.9-0.5-5.7-1.1-9.2c-0.3-2.3-0.7-4.6-1.1-6.6c0-0.1,0-0.2-0.1-0.3c0-0.1,0-0.2-0.1-0.4c-0.4-1.9-1-4.8-1.7-7.2 c-1.1-4.3-2.1-7.6-4.1-13.3c-0.5-1.5-1.1-3.1-1.7-4.5c-0.3-0.7-0.6-1.4-0.8-2c-0.2-0.5-0.5-1.1-0.7-1.7l-0.1-0.1 c-0.6-1.4-1.3-2.9-1.9-4.1c-0.1-0.1-0.1-0.3-0.2-0.4c-0.9-1.9-1.4-2.9-2.7-5.3c-0.1-0.2-0.2-0.4-0.4-0.7c-2.1-3.9-4.2-7.4-6.1-10.2 c0,0,0,0,0-0.1c-0.9-1.5-2.3-3.5-3.5-5.2c-0.1-0.1-0.1-0.2-0.2-0.2c-0.8-1.1-2.6-3.6-5.1-6.7c-0.1-0.1-0.2-0.3-0.3-0.4 c-0.8-0.9-1.6-1.9-2.5-3c-0.1-0.1-0.1-0.2-0.2-0.2c-1.4-1.7-3.4-3.8-4.7-5.2c0,0-0.1-0.1-0.1-0.1c0,0-0.1-0.1-0.1-0.1 c0-0.1-0.1-0.1-0.1-0.1c-0.9-1-2.1-2.1-3.4-3.4c-0.1-0.1-0.3-0.3-0.4-0.4c-1.1-1-2.3-2.2-3.6-3.4c0,0,0,0,0,0 c-1.1-1-2.4-2.1-3.7-3.2c-0.1-0.1-0.3-0.2-0.4-0.4c-1.1-0.9-2.3-1.9-3.6-2.8c-0.2-0.2-0.4-0.3-0.7-0.5c-0.3-0.2-0.5-0.4-0.8-0.6 c-0.5-0.4-1.1-0.8-1.6-1.1c-0.6-0.4-1.2-0.9-1.8-1.3c-0.9-0.7-1.9-1.3-2.9-2c-0.4-0.3-0.8-0.6-1.3-0.8c-1.1-0.7-2.3-1.5-3.5-2.2 c-0.3-0.2-0.6-0.4-0.9-0.6c-1.2-0.7-2.4-1.4-3.7-2.1c-0.2-0.1-0.4-0.2-0.5-0.3c-0.1,0-0.1-0.1-0.2-0.1c-0.1,0-0.1-0.1-0.2-0.1 c-0.1,0-0.1-0.1-0.2-0.1c-0.6-0.3-1.1-0.6-1.7-1c-0.2-0.1-0.4-0.2-0.6-0.3c-0.5-0.3-1-0.5-1.5-0.8c-0.3-0.1-0.5-0.3-0.8-0.4 c-0.3-0.2-0.7-0.3-1-0.5c-4-2-8.1-3.8-11.3-5.1c-0.2-0.1-0.4-0.2-0.6-0.2c-2.1-0.8-4.3-1.6-6.6-2.4c-2.2-0.8-4.5-1.5-7.2-2.2 c-2.3-0.6-4.7-1.3-7.2-1.8c-0.2,0-0.3-0.1-0.5-0.1c0,0-0.1,0-0.1,0c-3-0.7-6.4-1.3-9.9-1.8c-0.1,0-0.3,0-0.4-0.1 c-3.3-0.5-6.7-0.8-9.5-1c0,0,0,0,0,0C147-0.1,140-0.1,135.1,0.2l-1.1,0.1c-0.2,0-0.3,0-0.5,0c-0.6,0-1.2,0.1-1.8,0.1 c-2.2,0.1-4.7,0.4-7.1,0.7c-1.6,0.2-3.2,0.4-4.7,0.7c-2.3,0.4-4.5,0.8-6.4,1.2l-0.8,0.2c-0.2,0-0.4,0.1-0.7,0.2 c-1.6,0.3-3.2,0.7-4.6,1.1c-0.2,0.1-0.4,0.1-0.7,0.2c-3.5,0.9-7.1,1.8-10,3c-2,0.6-3.8,1.3-5.5,2c-0.3,0.1-0.6,0.2-0.9,0.4 c-1.5,0.6-3,1.1-4.2,1.7c-6.7,3-11.8,5.6-15.4,7.8c0,0,0,0,0,0c-1.9,1.1-4.1,2.4-6.2,3.8c-0.6,0.4-1.1,0.7-1.6,1.1 c-2.5,1.7-4.9,3.4-6.9,5c-1.3,1-2.8,2.2-4.3,3.5c-2.9,2.3-5.7,4.7-8,7c-0.4,0.4-0.8,0.8-1.3,1.3c-1.1,1-2.1,2.1-3.1,3.1 c-1,1.1-2,2.2-3,3.2c-1.6,1.7-3.1,3.5-4.3,5c-0.1,0.1-0.2,0.2-0.3,0.4c-2.9,3.5-5.1,6.6-6.8,9c0,0,0,0,0,0c0,0,0,0,0,0 C25,61.8,25,61.9,24.9,62c-0.2,0.3-0.5,0.7-0.8,1.3c-0.1,0.1-0.2,0.3-0.3,0.4c0,0,0,0.1-0.1,0.1c-1.4,2-2.8,4.3-4,6.4 c-1.7,2.8-3.4,5.9-4.8,8.8l-0.9,1.8c-1.2,2.5-2.5,5.3-3.4,7.7c-0.1,0.2-0.1,0.4-0.2,0.6c-0.1,0.3-0.3,0.6-0.4,0.9 c-1.4,3.5-2.8,7.6-4,11.5c-0.2,0.7-0.5,1.4-0.7,2.1c-0.7,2.2-1.3,4.8-2,7.6c-0.9,4.1-1.7,8.3-2.1,11.6c0,0,0,0,0,0 c-0.1,1-0.3,2.1-0.4,3.2c-0.2,2.1-0.5,4.3-0.6,6.1c0,0.5-0.1,1-0.1,1.5c0,0.5-0.1,1.1-0.1,1.6c-0.1,1.6-0.1,3.5-0.1,5.5 c0,0.7,0,1.4,0,2.1c0,0.4,0,0.8,0,1.1c0,0.1,0,0.2,0,0.2c0,0,0,0,0,0.1c0,0,0,0,0,0c0,0,0,0,0,0.1c0,3.2,0.2,7.4,0.5,10.2l0.2,1.8 c0,0.3,0.1,0.7,0.1,1c0.1,1.4,0.3,2.7,0.4,3.9c0,0.3,0.1,0.6,0.1,0.9c0,0.2,0.1,0.4,0.1,0.6c0.4,2.6,0.9,5.6,1.3,7.8 c0.9,4.5,1.7,7.4,1.8,7.7c0,0,0,0,0,0c0.2,0.8,0.5,1.8,0.8,2.8c0.4,1.4,0.8,2.8,1.2,4c0,0,0,0,0,0.1c0,0.1,0,0.1,0.1,0.2 c1.3,4.2,2.6,7.5,3.7,10.3c0.3,0.8,0.7,1.6,0.9,2.3c0.1,0.2,0.2,0.5,0.3,0.8c0.1,0.2,0.2,0.4,0.3,0.6c0.5,1.3,1.3,3,2,4.4 c0.7,1.5,1.5,3.1,2.3,4.7c0.2,0.4,0.4,0.8,0.6,1.2c1.1,2.1,2.3,4.2,3.1,5.5c0,0,0,0,0,0c1.1,1.8,2.2,3.6,3.4,5.4 c0.8,1.1,2,3,3.7,5.4c1.3,1.9,3.1,4.2,3.9,5.1c0,0,0,0,0,0.1c0,0,0,0,0,0c0,0,0,0.1,0.1,0.1c1.8,2.3,2.6,3.3,4,4.9 c2.6,3,4.4,4.9,4.9,5.4c1.4,1.5,3.4,3.5,5.2,5.1c0.1,0.1,0.1,0.1,0.2,0.2c0.1,0.1,0.3,0.2,0.4,0.3c1.3,1.2,3,2.6,4.5,3.9l1.2,1.1 c2,1.7,4.6,3.8,6.8,5.4c1.6,1.2,3.4,2.4,5,3.5l1.2,0.8c2.7,1.9,6.4,4,8.6,5.2c0,0,0,0,0,0c0,0,0,0,0,0c0.1,0.1,0.2,0.1,0.3,0.2 c0.1,0,0.1,0.1,0.2,0.1c2,1.1,4.4,2.4,7,3.6c0.4,0.2,0.8,0.4,1.2,0.6c2.4,1.1,5.9,2.8,8.7,3.8c0,0,0.1,0,0.1,0 c5.2,2.1,9.9,3.6,13.8,4.7c0.1,0,0.1,0,0.2,0.1c1.2,0.4,2.7,0.7,4.2,1.1c2.1,0.5,3.8,0.9,4.8,1.1c2.1,0.5,4.2,0.8,6.2,1.2 c1.7,0.3,3.3,0.6,5,0.7c3.1,0.5,6.7,0.8,9.9,0.9c3,0.2,5.3,0.2,6.4,0.2l0.6,0c0.2,0,0.5,0,0.7,0c0.6,0,1.1,0,1.5,0l0.7,0 c4.3,0,9.9-0.4,14.8-1c0.1,0,0.3,0,0.4,0c1-0.1,1.9-0.2,2.8-0.4c0,0,0,0,0,0c5.2-0.7,12-2,16.8-3.4c0.7-0.2,1.4-0.4,2.2-0.6 c0.9-0.2,1.7-0.5,2.5-0.7c5.7-1.6,12.1-4,16.4-6.1c0.4-0.2,0.8-0.4,1.3-0.6c0.9-0.4,1.7-0.8,2.5-1.1c4.5-2,10.6-5.4,15.5-8.7 c0.4-0.3,0.9-0.6,1.4-0.9c1-0.6,1.9-1.3,2.9-1.9c2.2-1.5,4.6-3.3,7-5.2c2.4-1.9,4.7-3.8,6.8-5.6c1.1-1,2.3-2.1,3.4-3.2 c0.1-0.1,0.2-0.1,0.2-0.2c3.6-3.2,8.3-8.3,11.7-12.6c0.1-0.2,0.2-0.3,0.4-0.5c0.1-0.2,0.3-0.3,0.4-0.4c1.7-2,3.4-4.4,5.2-6.8 c2.2-3.1,4.5-6.5,7.1-11c0,0,0,0,0,0c0.6-1.1,1.3-2.3,1.9-3.5c2.4-4.4,4.6-9,6.5-13.6c0-0.1,0.1-0.1,0.1-0.2s0.1-0.1,0.1-0.2 c0-0.1,0.1-0.2,0.1-0.2c1.9-4.5,3.9-10.3,5-14.7l0.3-1.1c0.3-1,0.6-2,0.8-3.1c0.9-3.6,1.7-7.2,2.1-9.6c0-0.1,0-0.3,0.1-0.4 c0.5-2.8,1-5.8,1.2-8.3l0.1-1.5c0.1-0.9,0.2-1.8,0.3-2.7c0.1-0.7,0.1-1.3,0.2-1.9C284.9,150.9,285,147.6,285,144.9z M281,121.1 l0,0.2c0,0.2,0,0.3,0.1,0.5l0.1,0.9c0,0,0,0.1,0,0.1c-0.3-0.7-0.6-1.4-0.9-2.1l0-0.4h0c0-1.4-0.1-2.9-0.2-4.3 c0.3,1.7,0.6,3.3,0.8,4.7C280.9,120.8,281,120.9,281,121.1z M280.5,167.3c0.1-1.6,0.1-3.3,0.1-5h0l0-0.4c0.4-0.8,0.7-1.6,1-2.4 c-0.3,2.6-0.7,5.3-1.1,7.7C280.5,167.2,280.5,167.2,280.5,167.3z M161.3,281.6c-2.6,0.3-5.4,0.6-8.2,0.8c-2.7,0.1-5.4,0.1-8.1,0 c3.3-1,6.4-2.4,9.4-4.1c4-2.4,7.6-5.4,10.7-9c6.3,1.9,12.4,3.1,18.4,3.5c0.4,0,0.8,0.1,1.2,0.1c0.3,0,0.6,0,1,0c0.5,0,1,0,1.5,0 c0.1,0,0.2,0,0.3,0c0,0,0,0,0,0c0.1,0,0.2,0,0.4,0c0.4,0,0.8,0,1.2,0c-7.8,3.9-15.9,6.7-24.3,8.2 C163.5,281.3,162.4,281.4,161.3,281.6z M51.3,238.6c-0.1-0.3-0.3-0.6-0.4-0.9c0-0.1-0.1-0.1-0.1-0.2c5.2,6.2,10.6,11.8,16.3,17 c-3-1-6-2.4-9.2-4.1c-2.1-2.9-4-6.1-5.7-9.6C52,240.1,51.6,239.4,51.3,238.6z M233.7,46.7c0.1,0.2,0.1,0.3,0.2,0.5 c0.1,0.3,0.2,0.5,0.3,0.8c-5.2-6.2-10.7-11.9-16.4-17.2c3,1,6.1,2.4,9.2,4.1c2.1,2.9,4,6.1,5.7,9.6C233.1,45.3,233.4,46,233.7,46.7 z M46.4,58.6c0.1-0.4,0.2-0.8,0.3-1.1c0.1-0.4,0.2-0.8,0.3-1.2c0.1-0.4,0.2-0.7,0.3-1.1c0.1-0.4,0.3-0.8,0.4-1.2 c0.1-0.4,0.2-0.7,0.3-1.1c0.1-0.4,0.3-0.8,0.4-1.2c0.1-0.3,0.2-0.7,0.3-1c0.2-0.5,0.4-0.9,0.5-1.4c0.1-0.3,0.2-0.5,0.3-0.8 c0.3-0.7,0.6-1.4,0.9-2.1c1.6-3.5,3.4-6.7,5.4-9.6c3.7-2.1,7.5-4,11.4-5.6c-8.1,8.4-15,18.2-20.6,28.9c-0.2,0-0.5,0.1-0.7,0.1 c0-0.1,0-0.1,0-0.2C46.2,59.4,46.3,59,46.4,58.6z M270.7,109.4c0.2,0.2,0.3,0.4,0.4,0.6c0.3,0.4,0.6,0.8,0.9,1.2 c0.1,0.2,0.3,0.4,0.4,0.6c0.3,0.4,0.6,0.8,0.8,1.2c0.1,0.2,0.2,0.4,0.4,0.6c0.3,0.4,0.5,0.8,0.8,1.2c0.1,0.2,0.2,0.4,0.3,0.6 c0.3,0.4,0.5,0.8,0.8,1.2c0.1,0.2,0.2,0.4,0.3,0.6c0.2,0.4,0.5,0.8,0.7,1.2c0.1,0.2,0.2,0.4,0.3,0.6c0.2,0.4,0.4,0.8,0.6,1.2 c0.1,0.2,0.2,0.4,0.3,0.6c0.1,0.1,0.1,0.2,0.2,0.3c0,4.2-0.3,8-1,11.6c-1.9-8.2-4.4-16.5-7.5-24.7c0.1,0.1,0.2,0.3,0.3,0.4 C270.1,108.6,270.4,109,270.7,109.4z M98.5,271.4c-0.4,0-0.9,0-1.3,0c-0.3,0-0.5,0-0.8,0c-0.4,0-0.9,0-1.3-0.1 c-0.3,0-0.5,0-0.8-0.1c-0.1,0-0.3,0-0.4,0c-6.2-3.5-12.4-7.7-18.2-12.4c1,0.1,2.1,0.2,3.1,0.2c1.2,0,2.3-0.1,3.4-0.2 c5.7,4.9,11.7,9.1,18,12.7c-0.3,0-0.6,0-0.9,0C99,271.4,98.8,271.4,98.5,271.4z M278.2,161.5c-0.6,1.4-1.3,2.8-2.1,4.2 c-0.2-6.3-1-12.6-2.3-18.9c1-1.5,1.9-3,2.6-4.7C277.5,148.6,278.1,155.1,278.2,161.5z M122.1,19c0.6,0.2,1.2,0.4,1.8,0.6 c0.3,0.1,0.6,0.2,0.8,0.3c0.5,0.2,1.1,0.4,1.6,0.6c-2.4-0.2-4.7-0.4-7-0.5c0.4-0.5,0.8-1.1,1.2-1.6c0.2,0.1,0.4,0.1,0.6,0.2 C121.5,18.8,121.8,18.9,122.1,19z M163.6,266.5c-0.1,0-0.2-0.1-0.3-0.1c-0.7-0.2-1.3-0.5-2-0.7c-0.1,0-0.2-0.1-0.4-0.1 c-0.7-0.2-1.3-0.5-2-0.8c-0.1,0-0.1-0.1-0.2-0.1c2.3,0.2,4.6,0.4,7,0.5c-0.4,0.5-0.8,1-1.2,1.6 C164.2,266.7,163.9,266.6,163.6,266.5z M22.2,187.4c0.3,0.2,0.5,0.4,0.8,0.7c0.3,0.3,0.7,0.6,1,0.9c0.3,0.3,0.6,0.5,0.9,0.8 c0.4,0.3,0.7,0.6,1.1,0.9c0.3,0.3,0.6,0.5,1,0.8c0.4,0.3,0.7,0.6,1.1,0.9c0.3,0.2,0.7,0.5,1,0.7c0.4,0.3,0.8,0.6,1.1,0.8 c0.3,0.2,0.7,0.5,1,0.7c0.4,0.3,0.8,0.6,1.2,0.8c0.4,0.2,0.7,0.5,1.1,0.7c0.4,0.3,0.8,0.5,1.2,0.8c0.4,0.2,0.7,0.5,1.1,0.7 c0.4,0.3,0.8,0.5,1.3,0.8c0.3,0.2,0.7,0.4,1,0.6c0.2,0.1,0.3,0.2,0.5,0.3c0.3,0.2,0.6,0.4,1,0.6c0.1,0.1,0.3,0.2,0.4,0.2 c-4.2,0.4-7.9,0.6-11.2,0.6C26.4,196.3,24.2,191.9,22.2,187.4z M84.1,68.9c-4.3,1.1-8.6,2.4-12.8,3.8c-0.3,0.1-0.6,0.2-1,0.3 c-1.5,0.5-2.9,1-4.3,1.6c-0.6,0.2-1.2,0.4-1.7,0.6c-1.2,0.5-2.4,1-3.6,1.4c-0.8,0.3-1.5,0.6-2.3,0.9c-1,0.4-2.1,0.9-3.1,1.4 c-0.9,0.4-1.8,0.8-2.6,1.2c-0.9,0.4-1.8,0.9-2.7,1.3c-0.9,0.5-1.9,0.9-2.8,1.4c-0.8,0.4-1.6,0.9-2.4,1.3c-0.5,0.3-1,0.6-1.5,0.8 c0,0,0,0,0,0c0-0.5,0-1,0-1.4c0-0.5,0-1,0-1.4c0-0.5,0-0.9,0-1.4c0-0.5,0-0.9,0.1-1.4c0-0.5,0-0.9,0.1-1.4c0-0.5,0.1-0.9,0.1-1.4 c0-0.4,0.1-0.9,0.1-1.3c0-0.5,0.1-0.9,0.1-1.4c0-0.4,0.1-0.9,0.1-1.3c0-0.4,0.1-0.9,0.2-1.3c0-0.2,0-0.4,0.1-0.6 c1.3-3,2.7-6,4.2-8.8C59.1,60.5,71.3,62.9,84.1,68.9z M263.8,153.6c-2.4,1.5-5.1,2.4-8,3c0.4-12.9-0.5-26-3-39.1 c2.3-1.7,4.4-3.3,6.4-4.9c5.7,11.1,9.8,22.5,12.2,33.9C269.3,149.4,266.8,151.8,263.8,153.6z M149.2,23.3c0.3-0.2,0.7-0.3,1-0.5 c0.5-0.2,0.9-0.4,1.4-0.6c0.3-0.2,0.7-0.3,1-0.5c0.5-0.2,0.9-0.4,1.4-0.6c0.3-0.1,0.6-0.3,1-0.4c0.5-0.2,0.9-0.4,1.4-0.6 c0.3-0.1,0.6-0.2,0.9-0.4c0.5-0.2,1-0.4,1.4-0.6c0.3-0.1,0.6-0.2,0.9-0.3c0.5-0.2,1-0.4,1.5-0.5c0.3-0.1,0.6-0.2,0.8-0.3 c0.5-0.2,1-0.3,1.5-0.5c0.3-0.1,0.5-0.2,0.8-0.2c0.5-0.2,1-0.3,1.5-0.4c0.3-0.1,0.5-0.1,0.8-0.2c0.5-0.1,1-0.3,1.5-0.4 c0.2-0.1,0.5-0.1,0.7-0.2c0.5-0.1,1-0.3,1.5-0.4c0.2-0.1,0.5-0.1,0.7-0.1c0.5-0.1,1-0.2,1.6-0.3c0.2,0,0.4-0.1,0.7-0.1 c0.5-0.1,1.1-0.2,1.6-0.3c0.2,0,0.4-0.1,0.6-0.1c0.5-0.1,1.1-0.2,1.6-0.2c0.2,0,0.4,0,0.6-0.1c0.5-0.1,1.1-0.1,1.6-0.2 c0.2,0,0.4,0,0.6-0.1c0.1,0,0.3,0,0.4,0c6.9,3.6,13.4,8,19.6,13c-2.7,0.6-5.2,1.6-7.5,3c-3.1,1.9-5.8,4.3-7.9,7.4 c-12-5.9-24.4-10.4-36.9-13.4c0.1-0.1,0.2-0.1,0.3-0.2C148.3,23.7,148.8,23.5,149.2,23.3z M246.4,195.2c-0.5,0.3-1,0.7-1.6,1 c-0.3,0.2-0.6,0.4-1,0.6c0,0-0.1,0-0.1,0c0-0.5,0-1,0-1.5c0-0.4,0-0.9-0.1-1.3c0-0.5-0.1-1.1-0.1-1.6c0-0.4-0.1-0.9-0.1-1.3 c0-0.5-0.1-1.1-0.1-1.6c0-0.4-0.1-0.9-0.1-1.3c0-0.6-0.1-1.1-0.1-1.7c0-0.4-0.1-0.9-0.1-1.3c-0.1-0.6-0.1-1.1-0.2-1.7 c-0.1-0.4-0.1-0.9-0.2-1.3c-0.1-0.6-0.1-1.1-0.2-1.7c-0.1-0.4-0.1-0.9-0.2-1.3c-0.1-0.6-0.2-1.2-0.3-1.8c-0.1-0.4-0.1-0.8-0.2-1.3 c-0.1-0.6-0.2-1.2-0.3-1.8c-0.1-0.4-0.1-0.8-0.2-1.2c-0.1-0.6-0.2-1.2-0.3-1.9c-0.1-0.4-0.2-0.8-0.2-1.2c-0.1-0.6-0.2-1.3-0.4-1.9 c-0.1-0.4-0.2-0.8-0.2-1.2c-0.1-0.6-0.3-1.3-0.4-1.9c-0.1-0.4-0.2-0.7-0.3-1.1c-0.2-0.7-0.3-1.3-0.5-2c-0.1-0.4-0.2-0.7-0.3-1.1 c-0.2-0.7-0.3-1.3-0.5-2c-0.1-0.4-0.2-0.7-0.3-1.1c-0.1-0.6-0.3-1.1-0.5-1.7c2.9,1,5.7,1.7,8.5,2.1c1.9,0.3,3.8,0.5,5.6,0.5 c0.7,0,1.4,0,2-0.1c-0.6,12.3-2.4,24.3-5.5,35.7c-0.3,0.2-0.6,0.4-0.9,0.6C246.9,194.8,246.7,195,246.4,195.2z M236.7,200.7 c-1,0.5-2,1-3.1,1.5c-0.8,0.4-1.5,0.8-2.3,1.2c-1,0.5-2.1,0.9-3.1,1.4c-0.8,0.4-1.6,0.8-2.5,1.1c-1,0.4-2,0.8-3,1.2 c-0.9,0.4-1.8,0.8-2.8,1.1c-0.9,0.3-1.8,0.7-2.7,1c-1.1,0.4-2.1,0.8-3.2,1.2c-0.8,0.3-1.6,0.5-2.3,0.8c-1.2,0.4-2.5,0.8-3.7,1.2 c-0.6,0.2-1.2,0.3-1.8,0.5c-1.5,0.4-2.9,0.9-4.4,1.3c-0.3,0.1-0.7,0.2-1.1,0.3c-0.9,0.2-1.7,0.4-2.6,0.7c-0.9-0.5-1.9-1-2.9-1.5 c14.2-18.4,26.1-39.4,34.5-61.2c1.8,1,3.6,1.8,5.3,2.5c0.1,0.2,0.1,0.4,0.2,0.6c0,0.1,0.1,0.2,0.1,0.3c0.2,0.9,0.5,1.8,0.7,2.7 c0,0.1,0.1,0.3,0.1,0.4c0.2,0.9,0.4,1.7,0.7,2.6c0,0.2,0.1,0.3,0.1,0.5c0.2,0.8,0.4,1.7,0.6,2.5c0,0.2,0.1,0.4,0.1,0.6 c0.2,0.8,0.3,1.6,0.5,2.4c0,0.2,0.1,0.4,0.1,0.7c0.2,0.8,0.3,1.5,0.5,2.3c0,0.2,0.1,0.5,0.1,0.7c0.1,0.7,0.3,1.5,0.4,2.2 c0,0.3,0.1,0.6,0.1,0.8c0.1,0.7,0.2,1.4,0.3,2.1c0,0.3,0.1,0.6,0.1,0.9c0.1,0.7,0.2,1.3,0.3,2c0,0.3,0.1,0.7,0.1,1 c0.1,0.6,0.2,1.3,0.2,1.9c0,0.4,0.1,0.7,0.1,1.1c0.1,0.6,0.1,1.2,0.2,1.8c0,0.4,0.1,0.8,0.1,1.2c0.1,0.6,0.1,1.1,0.1,1.7 c0,0.4,0.1,0.9,0.1,1.3c0,0.5,0.1,1.1,0.1,1.6c0,0.5,0.1,0.9,0.1,1.4c0,0.5,0,1,0.1,1.5c0,0.5,0,1,0.1,1.4c0,0.5,0,0.9,0,1.4 c0,0.4,0,0.9,0,1.3c-0.9,0.5-1.8,1-2.8,1.5C238.3,199.9,237.5,200.3,236.7,200.7z M140.5,259.7c-13.1-2.9-26.2-7.5-38.7-13.7 c1.2-1.9,2.2-4,3-6.3c1-2.5,1.7-5.1,2.2-8c0.5,0.5,1,0.9,1.4,1.4c0.2,0.2,0.4,0.4,0.6,0.6c0.5,0.5,1.1,1.1,1.6,1.6 c0.2,0.2,0.5,0.4,0.7,0.6c0.5,0.5,1.1,1,1.6,1.5c0.2,0.2,0.5,0.4,0.7,0.7c0.5,0.5,1.1,1,1.6,1.4c0.3,0.2,0.5,0.5,0.8,0.7 c0.5,0.5,1,0.9,1.6,1.3c0.3,0.2,0.6,0.5,0.8,0.7c0.5,0.4,1,0.9,1.5,1.3c0.3,0.2,0.6,0.5,0.9,0.7c0.5,0.4,1,0.8,1.5,1.2 c0.3,0.3,0.6,0.5,0.9,0.8c0.5,0.4,1,0.8,1.4,1.1c0.3,0.3,0.7,0.5,1,0.8c0.5,0.4,0.9,0.7,1.4,1c0.4,0.3,0.7,0.5,1.1,0.8 c0.4,0.3,0.9,0.7,1.4,1c0.4,0.3,0.7,0.5,1.1,0.8c0.4,0.3,0.9,0.6,1.3,0.9c0.4,0.3,0.8,0.5,1.2,0.8c0.4,0.3,0.8,0.6,1.3,0.8 c0.4,0.3,0.8,0.5,1.2,0.8c0.4,0.3,0.8,0.5,1.2,0.8c0.4,0.3,0.9,0.5,1.3,0.8c0.4,0.2,0.8,0.5,1.2,0.7c0.4,0.3,0.9,0.5,1.3,0.8 c0.4,0.2,0.8,0.4,1.2,0.7c0,0,0,0,0,0c-0.4,0.2-0.8,0.4-1.1,0.6C140.6,259.6,140.6,259.6,140.5,259.7z M161.3,245.8 c-0.7,0.5-1.3,1.1-2,1.6c-0.1,0.1-0.3,0.2-0.4,0.3c-0.6,0.5-1.2,0.9-1.8,1.4c-0.2,0.2-0.4,0.3-0.6,0.5c-0.6,0.4-1.1,0.8-1.7,1.2 c-0.3,0.2-0.5,0.4-0.8,0.6c-0.5,0.4-1,0.7-1.5,1.1c-0.3,0.2-0.6,0.4-1,0.7c-0.5,0.3-1,0.6-1.4,1c-0.4,0.2-0.7,0.5-1.1,0.7 c-0.5,0.3-0.9,0.6-1.4,0.9c-0.4,0.2-0.8,0.5-1.2,0.7c-0.4,0.3-0.9,0.5-1.3,0.8c-0.4,0.2-0.7,0.4-1.1,0.6c-0.3-0.1-0.5-0.3-0.8-0.4 c-0.5-0.3-1.1-0.6-1.6-0.9c-0.3-0.2-0.6-0.4-0.9-0.5c-0.5-0.3-1-0.6-1.6-0.9c-0.3-0.2-0.6-0.4-0.9-0.6c-0.5-0.3-1-0.6-1.5-1 c-0.3-0.2-0.6-0.4-0.9-0.6c-0.5-0.3-1-0.7-1.5-1c-0.3-0.2-0.6-0.4-0.9-0.6c-0.5-0.3-1-0.7-1.5-1c-0.3-0.2-0.6-0.4-0.9-0.7 c-0.5-0.4-1-0.7-1.5-1.1c-0.3-0.2-0.6-0.5-0.9-0.7c-0.5-0.4-1-0.7-1.5-1.1c-0.3-0.2-0.6-0.5-0.9-0.7c-0.5-0.4-1-0.8-1.5-1.1 c-0.3-0.2-0.6-0.5-0.9-0.7c-0.5-0.4-1-0.8-1.5-1.2c-0.3-0.2-0.6-0.5-0.9-0.8c-0.5-0.4-1-0.8-1.5-1.2c-0.3-0.2-0.6-0.5-0.9-0.8 c-0.5-0.4-1-0.8-1.5-1.3c-0.3-0.3-0.6-0.5-0.9-0.8c-0.5-0.4-1-0.9-1.5-1.3c-0.3-0.3-0.6-0.5-0.9-0.8c-0.5-0.4-1-0.9-1.4-1.3 c-0.3-0.3-0.6-0.5-0.8-0.8c-0.5-0.5-1-0.9-1.5-1.4c-0.3-0.3-0.5-0.5-0.8-0.8c-0.5-0.5-1-1-1.5-1.5c-0.3-0.3-0.5-0.5-0.8-0.8 c0,0,0,0,0,0c0.3-2.3,0.5-4.8,0.5-7.4c10.6,1.4,21.5,2.1,32.6,2.1c12.9,0,25.5-1,37.6-2.8c0,3.4-0.1,6.6-0.4,9.8 c-5.2,5.3-10.6,10.1-16.1,14.6C161.4,245.7,161.4,245.7,161.3,245.8z M126.2,37.7c0.7-0.5,1.3-1,2-1.5c0.2-0.1,0.3-0.2,0.5-0.3 c0.6-0.4,1.2-0.9,1.8-1.3c0.2-0.2,0.4-0.3,0.7-0.5c0.6-0.4,1.1-0.8,1.7-1.1c0.3-0.2,0.6-0.4,0.8-0.6c0.5-0.3,1-0.7,1.5-1 c0.3-0.2,0.7-0.4,1-0.6c0.5-0.3,1-0.6,1.4-0.9c0.4-0.2,0.7-0.5,1.1-0.7c0.5-0.3,0.9-0.5,1.4-0.8c0.3-0.2,0.7-0.4,1-0.6 c0.3,0.2,0.6,0.4,1,0.6c0.5,0.3,0.9,0.5,1.4,0.8c0.4,0.2,0.8,0.5,1.1,0.7c0.4,0.3,0.9,0.5,1.3,0.8c0.4,0.2,0.8,0.5,1.2,0.7 c0.4,0.3,0.9,0.5,1.3,0.8c0.4,0.3,0.8,0.5,1.2,0.8c0.4,0.3,0.8,0.6,1.3,0.8c0.4,0.3,0.8,0.5,1.2,0.8c0.4,0.3,0.8,0.6,1.3,0.9 c0.4,0.3,0.8,0.6,1.2,0.8c0.4,0.3,0.8,0.6,1.3,0.9c0.4,0.3,0.8,0.6,1.2,0.9c0.4,0.3,0.8,0.6,1.2,0.9c0.4,0.3,0.8,0.6,1.2,0.9 c0.4,0.3,0.8,0.6,1.2,1c0.4,0.3,0.8,0.6,1.1,0.9c0.4,0.3,0.8,0.7,1.2,1c0.4,0.3,0.7,0.6,1.1,0.9c0.4,0.3,0.8,0.7,1.2,1 c0.4,0.3,0.7,0.6,1.1,0.9c0.4,0.4,0.8,0.7,1.2,1.1c0.4,0.3,0.7,0.6,1.1,1c0.4,0.4,0.8,0.7,1.2,1.1c0.4,0.3,0.7,0.7,1.1,1 c0.4,0.4,0.8,0.8,1.2,1.1c0.4,0.3,0.7,0.7,1.1,1c0.4,0.4,0.8,0.8,1.2,1.2c0.3,0.3,0.7,0.7,1,1c0.4,0.4,0.9,0.8,1.3,1.3 c0.3,0.3,0.6,0.6,0.8,0.8c-0.3,2.3-0.5,4.8-0.5,7.4c-23-3.1-47.2-2.8-70.2,0.7c0-3.4,0.1-6.7,0.4-9.8c5.9-6,12.1-11.5,18.5-16.4 C126,37.8,126.1,37.7,126.2,37.7z M31.4,128.4c2.3-0.2,4.8-0.2,7.3,0.1c3,0.5,6.1,1.3,9.3,2.6c0,0,0,0,0,0c0.2,0.6,0.3,1.1,0.5,1.7 c0.1,0.5,0.3,1,0.4,1.5c0.2,0.6,0.3,1.1,0.5,1.7c0.2,0.5,0.3,1,0.5,1.5c0.2,0.6,0.4,1.1,0.5,1.7c0.2,0.5,0.3,1,0.5,1.5 c0.2,0.6,0.4,1.1,0.6,1.7c0.1,0.2,0.1,0.3,0.2,0.5c-1.5,4.5-2.8,8.9-4,13.4c0,0.1-0.1,0.3-0.1,0.4c-0.1,0.4-0.2,0.8-0.3,1.3 c-4.8,3-9.2,5.9-13.1,8.7C31.8,153.7,30.9,141,31.4,128.4z M38.6,90.2c0.5-0.3,1-0.6,1.6-1c0.3-0.2,0.6-0.4,1-0.6c0,0,0.1,0,0.1,0 c0,0,0,0,0,0.1c0,0.5,0,0.9,0,1.4c0,0.5,0,1,0.1,1.6c0,0.5,0,0.9,0.1,1.4c0,0.5,0.1,1,0.1,1.6c0,0.5,0.1,0.9,0.1,1.4 c0,0.5,0.1,1,0.1,1.6c0,0.5,0.1,1,0.1,1.4c0,0.5,0.1,1,0.2,1.6c0.1,0.5,0.1,1,0.2,1.5c0.1,0.5,0.1,1,0.2,1.6c0.1,0.5,0.1,1,0.2,1.5 c0.1,0.5,0.1,1,0.2,1.5c0.1,0.5,0.1,1,0.2,1.5c0.1,0.5,0.2,1,0.2,1.5c0.1,0.5,0.2,1,0.2,1.5c0.1,0.5,0.2,1,0.3,1.5 c0.1,0.5,0.2,1,0.3,1.5c0.1,0.5,0.2,1,0.3,1.5c0.1,0.5,0.2,1,0.3,1.6c0.1,0.5,0.2,1,0.3,1.5c0.1,0.5,0.2,1.1,0.3,1.6 c0.1,0.5,0.2,1,0.3,1.5c0.1,0.5,0.2,1.1,0.4,1.6c0.1,0.5,0.2,1,0.4,1.5c0.1,0.5,0.3,1.1,0.4,1.6c0.1,0.5,0.3,1,0.4,1.5 c0.1,0.5,0.2,0.9,0.4,1.4c-3-1.1-5.9-1.8-8.7-2.2c-2.5-0.4-5-0.5-7.4-0.4c0.6-12.3,2.4-24.3,5.5-35.7c0.3-0.2,0.6-0.4,0.9-0.6 C38.1,90.5,38.4,90.3,38.6,90.2z M184.6,40c10,5.1,19.7,11.2,28.9,18.3c-5.2,2.4-10.8,5.3-16.8,8.7c-2.6-0.6-5.2-1.1-7.8-1.6 c-0.2-0.2-0.3-0.4-0.5-0.6c-0.4-0.5-0.8-1-1.2-1.4c-0.3-0.3-0.6-0.7-0.9-1c-0.4-0.5-0.9-1-1.3-1.5c-0.3-0.3-0.6-0.6-0.8-0.9 c-0.5-0.5-0.9-1-1.4-1.5c-0.3-0.3-0.5-0.5-0.8-0.8c-0.5-0.5-1-1.1-1.5-1.6c-0.2-0.2-0.5-0.5-0.7-0.7c-0.1-0.1-0.2-0.2-0.3-0.3 c0.5-3.7,1.4-7.1,2.7-10.2C182.7,43,183.6,41.4,184.6,40z M77.8,213.7c-1.5-0.4-3-0.9-4.5-1.4c-0.5-0.2-1-0.3-1.6-0.5 c-1.3-0.4-2.6-0.9-3.9-1.3c-0.7-0.2-1.4-0.5-2-0.7c-1.1-0.4-2.3-0.9-3.4-1.3c-0.8-0.3-1.6-0.6-2.4-0.9c-1-0.4-2-0.9-3-1.3 c-0.9-0.4-1.7-0.7-2.6-1.1c-1-0.4-1.9-0.9-2.8-1.3c-0.9-0.4-1.8-0.8-2.6-1.3c-0.9-0.5-1.8-0.9-2.7-1.4c-0.1-0.1-0.3-0.2-0.4-0.2 c9.3-1.3,19.9-3.5,31.3-6.4c0,0.1,0.1,0.1,0.1,0.2c0.4,0.6,0.8,1.3,1.3,1.9c0.2,0.3,0.4,0.7,0.7,1c0.4,0.7,0.9,1.3,1.3,2 c0.2,0.3,0.4,0.6,0.6,0.9c0.5,0.7,1,1.4,1.4,2c0.2,0.3,0.4,0.5,0.5,0.8c0.5,0.7,1,1.4,1.5,2.1c0.2,0.2,0.3,0.5,0.5,0.7 c0.5,0.7,1,1.4,1.5,2.1c0.2,0.2,0.3,0.4,0.5,0.7c0.5,0.7,1.1,1.4,1.6,2.1c0.2,0.2,0.3,0.4,0.5,0.6c0.5,0.7,1.1,1.4,1.6,2.1 c0.2,0.2,0.3,0.4,0.5,0.6c0.1,0.2,0.3,0.3,0.4,0.5c-1,0.6-2.1,1.2-3.1,1.8c-3.3-0.8-6.7-1.6-9.9-2.5 C78.4,213.9,78.1,213.8,77.8,213.7z M48.3,84.6c0.8-0.4,1.7-0.8,2.5-1.2c1-0.5,1.9-1,2.9-1.5c0.8-0.4,1.6-0.7,2.4-1.1 c1.1-0.5,2.1-1,3.2-1.4c0.7-0.3,1.5-0.6,2.2-0.9c1.2-0.5,2.4-1,3.6-1.4c0.6-0.2,1.2-0.5,1.9-0.7c1.3-0.5,2.7-1,4-1.5 c0.5-0.2,0.9-0.3,1.4-0.5c1.5-0.5,3.1-1,4.7-1.5c0.2-0.1,0.5-0.1,0.7-0.2c3-0.9,6-1.7,9.1-2.5c0.9,0.5,1.9,1,2.8,1.5 C75.4,90,63.6,111.1,55.2,132.8c-1.8-1-3.6-1.8-5.3-2.5c-0.1-0.3-0.2-0.7-0.3-1c-0.2-0.6-0.3-1.2-0.5-1.8c-0.1-0.4-0.2-0.8-0.3-1.2 c-0.2-0.6-0.3-1.2-0.4-1.8c-0.1-0.4-0.2-0.9-0.3-1.3c-0.1-0.6-0.3-1.2-0.4-1.8c-0.1-0.4-0.2-0.9-0.3-1.3c-0.1-0.6-0.2-1.1-0.4-1.7 c-0.1-0.5-0.2-0.9-0.3-1.4c-0.1-0.6-0.2-1.1-0.3-1.7c-0.1-0.5-0.2-0.9-0.3-1.4c-0.1-0.5-0.2-1.1-0.3-1.6c-0.1-0.5-0.2-1-0.3-1.4 c-0.1-0.5-0.2-1-0.2-1.6c-0.1-0.5-0.2-1-0.2-1.5c-0.1-0.5-0.1-1-0.2-1.5c-0.1-0.5-0.1-1-0.2-1.5c-0.1-0.5-0.1-1-0.2-1.5 c-0.1-0.5-0.1-1-0.2-1.5c-0.1-0.5-0.1-1-0.1-1.4c-0.1-0.5-0.1-1-0.2-1.5c0-0.5-0.1-0.9-0.1-1.4c0-0.5-0.1-1-0.1-1.6 c0-0.5-0.1-0.9-0.1-1.4c0-0.5-0.1-1.1-0.1-1.6c0-0.4,0-0.9-0.1-1.3c0-0.5,0-1.1-0.1-1.6c0-0.4,0-0.9,0-1.3c0-0.5,0-0.9,0-1.4 c0.8-0.4,1.5-0.8,2.3-1.3C46.5,85.6,47.4,85.1,48.3,84.6z M241.1,89.6c0,0.5,0,1.1,0,1.6c0,0.5,0,0.9-0.1,1.4c0,0.6,0,1.1-0.1,1.7 c0,0.4-0.1,0.8-0.1,1.3c0,0.6-0.1,1.2-0.1,1.8c0,0.4-0.1,0.7-0.1,1.1c-0.1,0.7-0.1,1.3-0.2,2c0,0.3-0.1,0.6-0.1,0.9 c-0.1,0.7-0.1,1.5-0.2,2.2c0,0.2-0.1,0.5-0.1,0.7c-0.1,0.8-0.2,1.6-0.3,2.4c0,0.1,0,0.3-0.1,0.4c-0.1,0.9-0.2,1.8-0.4,2.7 c0,0,0,0.1,0,0.1c-0.9,5.7-2,11.4-3.4,17.1c-2.2,1.4-4.6,2.8-6.9,4.2c-0.1-0.2-0.2-0.4-0.2-0.6c-0.1-0.3-0.3-0.6-0.4-0.9 c-0.3-0.7-0.6-1.5-0.9-2.2c-0.1-0.3-0.3-0.6-0.4-0.9c-0.3-0.7-0.6-1.5-1-2.2c-0.1-0.3-0.3-0.7-0.4-1c-0.3-0.7-0.6-1.4-1-2.1 c-0.2-0.3-0.3-0.7-0.5-1c-0.3-0.7-0.6-1.4-1-2.1c-0.2-0.4-0.4-0.7-0.5-1.1c-0.3-0.7-0.7-1.3-1-2c-0.2-0.4-0.4-0.7-0.6-1.1 c-0.2-0.4-0.4-0.7-0.5-1.1c8-8.8,15-17.2,20.6-25c0,0.2,0,0.3,0,0.5C241.1,88.7,241.1,89.1,241.1,89.6z M43.9,195.7 c0-0.5,0-1.1,0-1.6c0-0.5,0-0.9,0.1-1.4c0-0.6,0-1.1,0.1-1.7c0-0.4,0.1-0.8,0.1-1.3c0-0.6,0.1-1.2,0.1-1.8c0-0.4,0.1-0.8,0.1-1.1 c0.1-0.6,0.1-1.3,0.2-1.9c0-0.3,0.1-0.6,0.1-0.9c0.1-0.7,0.1-1.4,0.2-2.1c0-0.2,0.1-0.5,0.1-0.7c0.1-0.8,0.2-1.6,0.3-2.4 c0-0.1,0-0.3,0.1-0.4c0.1-0.9,0.2-1.8,0.4-2.7c0,0,0-0.1,0-0.1c0.9-5.6,2-11.3,3.4-17.1c2.2-1.4,4.5-2.8,6.9-4.2 c0.1,0.2,0.1,0.3,0.2,0.5c0.2,0.5,0.5,1.1,0.7,1.6c0.2,0.5,0.4,1,0.6,1.5c0.2,0.6,0.5,1.1,0.7,1.7c0.2,0.5,0.4,1,0.6,1.5 c0.3,0.6,0.5,1.2,0.8,1.7c0.2,0.5,0.4,0.9,0.6,1.4c0.3,0.6,0.6,1.2,0.9,1.8c0.2,0.4,0.4,0.9,0.6,1.3c0.3,0.6,0.6,1.3,0.9,1.9 c0.2,0.4,0.4,0.8,0.6,1.2c0.3,0.7,0.7,1.3,1,2c0,0.1,0.1,0.1,0.1,0.2c-8,8.8-15,17.2-20.6,25c0-0.2,0-0.3,0-0.5 C43.9,196.7,43.9,196.2,43.9,195.7z M51.7,136.6c-0.1-0.4-0.2-0.8-0.4-1.1c-0.2-0.6-0.4-1.3-0.6-1.9c-0.1-0.4-0.2-0.8-0.4-1.2 c0-0.1,0-0.2-0.1-0.2c1.4,0.6,2.8,1.4,4.3,2.1c-0.7,1.8-1.3,3.6-1.9,5.4c-0.1-0.4-0.2-0.7-0.4-1.1 C52.2,137.9,51.9,137.3,51.7,136.6z M228.2,134.3c0.4,1,0.8,2,1.1,3c0,0,0,0.1,0.1,0.1c0.4,1,0.7,2,1.1,3c0,0,0,0.1,0,0.1 c0.3,0.7,0.5,1.5,0.8,2.2c-0.8,2.5-1.7,4.9-2.6,7.4c-4.6-2.7-9-6-13.2-9.7c4.2-2.3,8.4-4.6,12.4-6.9 C228,133.7,228.1,134,228.2,134.3C228.2,134.2,228.2,134.2,228.2,134.3z M92.2,212.2c-0.5-0.6-1-1.2-1.4-1.8 c-0.2-0.3-0.4-0.6-0.6-0.8c-0.5-0.6-0.9-1.2-1.4-1.8c-0.2-0.3-0.4-0.6-0.6-0.9c-0.5-0.6-0.9-1.2-1.4-1.9c-0.2-0.3-0.4-0.6-0.6-0.9 c-0.5-0.6-0.9-1.3-1.4-1.9c-0.2-0.3-0.4-0.6-0.6-0.9c-0.5-0.6-0.9-1.3-1.4-1.9c-0.2-0.3-0.4-0.6-0.6-0.9c-0.4-0.6-0.9-1.3-1.3-1.9 c-0.2-0.3-0.4-0.6-0.6-0.9c-0.4-0.5-0.7-1.1-1.1-1.6c6.5-1.7,13.2-3.6,20.1-5.7c2.4,6.1,4.3,12.4,5.5,18.5 c-3.8,2.4-7.6,4.7-11.3,6.9c-0.2-0.2-0.4-0.5-0.6-0.7C92.7,212.8,92.5,212.5,92.2,212.2z M65.1,169.6c-0.3-0.6-0.6-1.3-0.9-1.9 c-0.2-0.4-0.4-0.8-0.6-1.1c-0.3-0.7-0.6-1.3-0.9-2c-0.2-0.4-0.4-0.7-0.5-1.1c-0.3-0.7-0.6-1.3-0.9-2c-0.2-0.4-0.3-0.7-0.5-1.1 c-0.3-0.7-0.6-1.4-0.9-2.1c-0.2-0.3-0.3-0.7-0.5-1c-0.3-0.7-0.6-1.3-0.8-2c-0.2-0.4-0.3-0.7-0.5-1.1c-0.1-0.3-0.2-0.5-0.3-0.8 c4.2-2.4,8.5-4.8,13-7.2c3.3,3.1,6.5,6.5,9.5,10.2c-5.1,5-9.9,10-14.4,14.8c0-0.1-0.1-0.2-0.1-0.3C65.6,170.4,65.3,170,65.1,169.6z M56.1,149c-0.1-0.4-0.3-0.7-0.4-1.1c-0.3-0.7-0.5-1.4-0.8-2c-0.1-0.4-0.3-0.7-0.4-1.1c-0.2-0.7-0.5-1.3-0.7-2c0-0.1,0-0.1-0.1-0.2 c0.8-2.5,1.7-4.9,2.6-7.4c4.6,2.7,9,6,13.2,9.7c-4.2,2.3-8.4,4.6-12.4,6.9c-0.1-0.3-0.2-0.6-0.3-0.8 C56.6,150.4,56.3,149.7,56.1,149z M76.5,189.8c-0.4-0.7-0.8-1.3-1.2-2c-0.6-1-1.2-2-1.8-3c-0.6-1-1.2-2-1.8-3 c-0.3-0.5-0.5-0.9-0.8-1.4c-0.3-0.5-0.6-1.1-0.9-1.6c-0.3-0.6-0.6-1.2-0.9-1.7c-0.2-0.4-0.5-0.9-0.7-1.3c-0.3-0.6-0.6-1.2-0.9-1.7 c-0.2-0.4-0.5-0.9-0.7-1.3c0,0,0-0.1,0-0.1c4.6-5,9.5-10,14.6-15.1c7.1,8.8,13.1,19,17.4,29.5c-7,2.1-13.8,4.1-20.4,5.8 c-0.4-0.6-0.8-1.3-1.2-1.9C76.9,190.5,76.7,190.2,76.5,189.8z M205.9,71.2c0.5,0.1,0.9,0.2,1.4,0.4c1.4,0.4,2.7,0.8,4.1,1.2 c0.7,0.2,1.3,0.4,2,0.6c1.2,0.4,2.3,0.8,3.5,1.2c0.8,0.3,1.7,0.6,2.5,0.8c1,0.4,2,0.8,3,1.2c0.9,0.4,1.8,0.7,2.7,1.1 c0.9,0.4,1.8,0.8,2.7,1.2c1,0.4,1.9,0.8,2.9,1.2c0.9,0.4,1.7,0.8,2.6,1.2c1,0.5,1.9,0.9,2.9,1.4c0.8,0.4,1.7,0.9,2.5,1.3 c0.2,0.1,0.4,0.2,0.6,0.3c-9.3,1.3-19.9,3.5-31.3,6.4c0-0.1-0.1-0.2-0.1-0.2c-0.3-0.5-0.7-1-1-1.5c-0.3-0.5-0.6-0.9-0.9-1.4 c-0.4-0.5-0.7-1.1-1.1-1.6c-0.3-0.4-0.6-0.9-0.9-1.3c-0.4-0.5-0.7-1.1-1.1-1.6c-0.3-0.4-0.6-0.8-0.9-1.2c-0.4-0.5-0.7-1-1.1-1.6 c-0.3-0.4-0.6-0.8-0.9-1.2c-0.4-0.5-0.7-1-1.1-1.5c-0.3-0.4-0.6-0.8-0.9-1.3c-0.4-0.5-0.7-1-1.1-1.4c-0.3-0.4-0.7-0.9-1-1.3 c-0.4-0.5-0.7-0.9-1.1-1.4c-0.3-0.4-0.7-0.9-1-1.3c-0.1-0.1-0.2-0.3-0.3-0.4c1.1-0.6,2.1-1.2,3.1-1.8c1.4,0.3,2.8,0.6,4.1,1 c0.2,0,0.4,0.1,0.5,0.1C202.7,70.3,204.3,70.8,205.9,71.2z M213.4,103.5c0.4,0.7,0.8,1.4,1.2,2c0.2,0.3,0.4,0.7,0.6,1 c0.5,0.8,0.9,1.7,1.4,2.5c0.1,0.2,0.2,0.4,0.3,0.6c0.4,0.8,0.9,1.6,1.3,2.5c0.1,0.2,0.2,0.4,0.3,0.6c0,0,0,0.1,0,0.1 c-4.6,5-9.4,10-14.6,15.1c-7.1-8.8-13.1-19-17.4-29.5c7-2.1,13.8-4.1,20.4-5.8c0,0,0,0.1,0.1,0.1c0.4,0.6,0.8,1.2,1.1,1.8 c0.3,0.5,0.7,1.1,1,1.6c0.3,0.4,0.6,0.9,0.8,1.3c0.6,1,1.2,2,1.8,3C212.2,101.5,212.8,102.5,213.4,103.5z M82.5,156.3 c11-10.8,23.2-21.8,36-32.5c6.8,16.6,16,32.6,26.8,46.9c-15.2,5.9-30.5,11.3-45,15.8C95.9,175.7,89.8,165.3,82.5,156.3z M114.7,124.9c-11.7,9.9-23,20.1-33.2,30.1c-2.9-3.5-6-6.8-9.2-9.8C85.6,138.2,99.9,131.4,114.7,124.9z M191.5,68.4 c-0.2-0.2-0.4-0.5-0.6-0.7c1.1,0.2,2.2,0.4,3.2,0.7c-0.6,0.3-1.2,0.7-1.8,1.1C192,69,191.7,68.7,191.5,68.4z M187.9,67.2 c0.3,0.3,0.5,0.6,0.8,0.9c0.5,0.5,0.9,1.1,1.4,1.6c0.2,0.2,0.4,0.4,0.5,0.7c-3.5,2-7,4.2-10.6,6.4c-0.7-3.8-1.1-7.5-1.2-11.2 c3,0.4,6,0.9,9,1.5C187.8,67.1,187.9,67.1,187.9,67.2z M191.6,71.6c0.2,0.2,0.4,0.5,0.6,0.7c0.3,0.3,0.5,0.6,0.8,1 c0.4,0.6,0.9,1.1,1.3,1.7c0.2,0.3,0.5,0.6,0.7,1c0.4,0.6,0.9,1.1,1.3,1.7c0.2,0.3,0.5,0.6,0.7,0.9c0.4,0.6,0.9,1.2,1.3,1.8 c0.2,0.3,0.5,0.6,0.7,1c0.4,0.6,0.9,1.2,1.3,1.8c0.2,0.3,0.5,0.6,0.7,1c0.4,0.6,0.9,1.2,1.3,1.8c0.2,0.3,0.4,0.6,0.6,0.9 c0.4,0.7,0.9,1.3,1.3,2c0.2,0.3,0.4,0.6,0.6,0.9c0.4,0.5,0.7,1.1,1.1,1.6c-6.5,1.7-13.2,3.6-20.1,5.7c-2.4-6.1-4.3-12.4-5.5-18.5 C184.1,76.1,187.9,73.8,191.6,71.6z M184.2,97.5c-14.6,4.5-30,9.9-45.3,15.9c-1-1.2-1.9-2.5-2.9-3.7c14.2-11.1,28.8-21.4,42.8-30.3 C180,85.4,181.8,91.5,184.2,97.5z M137.5,113.9c-4.6,1.8-9.2,3.7-13.8,5.6c3.7-3,7.4-6,11.2-8.9 C135.7,111.7,136.6,112.8,137.5,113.9z M153.2,134.7c-4.2-7-8.7-13.8-13.4-20c15.2-5.9,30.4-11.3,44.9-15.7 c4.4,10.8,10.6,21.2,17.8,30.2c-11,10.8-23.2,21.8-35.9,32.4C162.9,152.5,158.4,143.5,153.2,134.7z M133.9,109.4 c-5,3.9-10,7.9-14.9,12c-4.9-12.3-8.4-24.8-10.4-37.1C117.6,91.5,126.1,100,133.9,109.4z M119.6,122.9 C119.6,122.9,119.6,122.9,119.6,122.9c6.2-2.7,12.5-5.2,18.8-7.7c11,14.4,20.2,30.6,27.1,47.3c0,0,0,0,0,0 c-6.2,2.7-12.5,5.2-18.8,7.7C135.7,155.8,126.4,139.6,119.6,122.9z M117.8,122c-16.3,7-32.1,14.5-46.6,22.2 c-4.5-4.1-9.3-7.6-14.2-10.4c8.3-21.8,20.2-42.8,34.5-61.2c5.3,3,10.5,6.5,15.5,10.3C108.8,95.9,112.6,109.1,117.8,122z M100.9,187.9c14.6-4.5,30-9.9,45.4-15.9c0.9,1.2,1.9,2.4,2.9,3.7c-14.2,11.1-28.8,21.4-42.9,30.3 C105.1,199.9,103.3,193.8,100.9,187.9z M147.6,171.4c4.6-1.8,9.2-3.7,13.8-5.6c-3.7,3-7.4,6-11.2,8.9 C149.3,173.6,148.5,172.5,147.6,171.4z M203.5,130.2c2.9,3.5,6,6.8,9.2,9.8c-13.3,7-27.6,13.9-42.4,20.3 C182.1,150.5,193.3,140.3,203.5,130.2z M204.8,129c5.1-5,9.9-10,14.4-14.8c0.2,0.4,0.4,0.8,0.6,1.2c0.1,0.1,0.1,0.2,0.2,0.3 c0.5,1,1,1.9,1.4,2.9c0,0.1,0.1,0.1,0.1,0.2c0.5,0.9,0.9,1.9,1.4,2.9c0,0.1,0.1,0.2,0.1,0.2c0.4,1,0.9,1.9,1.3,2.9 c0,0.1,0.1,0.1,0.1,0.2c0.4,1,0.9,2,1.3,3c0,0,0,0.1,0,0.1c0.4,1,0.9,2,1.3,3c0,0,0,0.1,0,0.1c0.1,0.3,0.2,0.6,0.3,0.9 c-4.2,2.4-8.5,4.8-13,7.2C211,136.1,207.8,132.7,204.8,129z M219.4,110.5c-0.3-0.6-0.6-1.2-1-1.9c-0.3-0.5-0.5-0.9-0.8-1.4 c-0.3-0.6-0.6-1.1-0.9-1.7c-0.3-0.6-0.7-1.2-1-1.8c-0.2-0.4-0.5-0.9-0.7-1.3c-0.6-1-1.2-2-1.8-3.1s-1.2-2-1.8-3 c-0.2-0.4-0.5-0.8-0.7-1.2c-0.4-0.6-0.7-1.2-1.1-1.8c-0.3-0.5-0.6-0.9-0.9-1.4c11.6-2.9,22.3-5.1,31.7-6.3 c-5.5,7.9-12.5,16.5-20.6,25.4C219.7,111,219.5,110.8,219.4,110.5z M177.2,65.4c0.1,4,0.5,8.2,1.3,12.4c-14.3,9-29,19.5-43.5,30.8 c-8.3-10.1-17.3-19-26.7-26.4c-0.8-5.4-1.2-10.8-1.3-16.1C130,62.5,154.2,62.2,177.2,65.4z M97.1,218.2c-0.2-0.3-0.4-0.5-0.7-0.8 c-0.5-0.6-1-1.2-1.5-1.7c-0.2-0.2-0.4-0.4-0.5-0.7c3.5-2,7-4.2,10.6-6.4c0.7,3.8,1.1,7.5,1.2,11.2c-3-0.4-6-0.9-9-1.5 C97.2,218.2,97.2,218.2,97.1,218.2z M65.3,174.1c0.3,0.5,0.5,1,0.8,1.5c0.2,0.3,0.3,0.7,0.5,1c0.4,0.7,0.8,1.5,1.2,2.2 c0.2,0.3,0.3,0.6,0.5,0.9c0.5,0.9,0.9,1.7,1.4,2.5c0.1,0.2,0.2,0.4,0.3,0.5c0.6,1,1.2,2,1.8,3.1c0.6,1,1.2,2,1.8,3 c0.3,0.5,0.7,1.1,1,1.6c0.3,0.5,0.6,0.9,0.9,1.4c0.3,0.5,0.6,0.9,0.9,1.4c-11.6,2.9-22.3,5.1-31.7,6.3 C50.1,191.6,57.1,183.1,65.3,174.1z M92.8,216c0.1,0.1,0.2,0.2,0.3,0.3c0.2,0.2,0.3,0.4,0.5,0.6c0.2,0.3,0.5,0.5,0.7,0.8 c-1.1-0.2-2.2-0.4-3.2-0.7C91.5,216.7,92.2,216.3,92.8,216z M105.4,66.3c0.1,4.8,0.5,9.6,1.2,14.5c-4.7-3.5-9.4-6.7-14.2-9.5 c0.8-1,1.6-2.1,2.5-3.1C98.4,67.6,101.9,66.9,105.4,66.3z M53.2,146.9c0.2,0.5,0.4,1.1,0.6,1.6c0.2,0.5,0.4,1,0.6,1.5 c0.2,0.5,0.4,1.1,0.6,1.6c0.2,0.4,0.3,0.8,0.5,1.2c-2,1.2-3.9,2.3-5.8,3.5c0.9-3.5,1.9-7.1,3.1-10.6 C52.9,146.1,53,146.5,53.2,146.9z M107.8,220c-0.1-4-0.5-8.2-1.3-12.4c14.3-9.1,29.1-19.6,43.5-30.8c8.2,10,17.1,18.9,26.6,26.4 c0.8,5.4,1.2,10.8,1.3,16.1C155.1,222.8,130.9,223.1,107.8,220z M151.2,175.9c5-3.9,10-7.9,14.9-12c4.9,12.3,8.4,24.8,10.4,37.1 C167.4,193.8,159,185.3,151.2,175.9z M167.3,163.3c16.3-7,32.1-14.4,46.6-22.1c4.5,4.1,9.3,7.6,14.2,10.4 c-8.3,21.8-20.2,42.8-34.5,61.2c-5.3-3-10.5-6.5-15.5-10.4C176.2,189.6,172.6,176.4,167.3,163.3z M90.7,70.4 c-0.5-0.3-1-0.6-1.5-0.8c0.9-0.2,1.8-0.4,2.6-0.6C91.4,69.5,91,69.9,90.7,70.4z M179.1,57.5c0.3,0.3,0.6,0.7,0.9,1 c0.4,0.5,0.9,0.9,1.3,1.4c0.3,0.3,0.6,0.6,0.9,1c0.4,0.5,0.9,0.9,1.3,1.4c0.3,0.3,0.6,0.6,0.9,1c0.4,0.5,0.9,1,1.3,1.5 c0,0,0,0,0.1,0.1c-2.3-0.4-4.7-0.8-7-1.1C178.7,61.5,178.8,59.4,179.1,57.5C179.1,57.5,179.1,57.5,179.1,57.5z M105.9,227.8 c-0.3-0.3-0.5-0.5-0.8-0.8c-0.5-0.5-1-1-1.5-1.5c-0.3-0.3-0.5-0.5-0.8-0.8c-0.5-0.5-1-1-1.5-1.6c-0.2-0.3-0.5-0.5-0.7-0.8 c-0.5-0.5-1-1.1-1.5-1.6c0,0,0,0,0,0c2.3,0.4,4.7,0.8,7,1.1C106.3,223.9,106.2,225.9,105.9,227.8C106,227.9,106,227.9,105.9,227.8z M232,138.9c-0.3-0.7-0.5-1.5-0.8-2.2c-0.1-0.3-0.2-0.6-0.4-0.9c-0.3-0.7-0.6-1.5-0.9-2.2c-0.1-0.3-0.3-0.6-0.4-0.9 c0-0.1,0-0.1-0.1-0.2c2-1.2,3.9-2.3,5.8-3.5c-0.9,3.5-1.9,7.1-3.1,10.6C232.2,139.4,232.1,139.2,232,138.9z M232.3,145.7 c0.1,0.3,0.2,0.5,0.3,0.8c0,0.1,0,0.1,0.1,0.2c0.3,1,0.6,1.9,0.9,2.9c0,0.1,0,0.1,0.1,0.2c0.3,0.9,0.6,1.9,0.9,2.8 c0,0.1,0.1,0.2,0.1,0.3c0,0.1,0.1,0.2,0.1,0.3c-1.4-0.6-2.8-1.3-4.3-2.1C231.1,149.2,231.7,147.5,232.3,145.7z M179.6,219 c-0.1-4.8-0.5-9.6-1.1-14.5c4.6,3.5,9.4,6.7,14.2,9.5c-0.8,1-1.6,2.1-2.5,3.1C186.7,217.8,183.1,218.4,179.6,219z M237.1,80.9 c-0.9-0.4-1.8-0.9-2.7-1.3c-0.9-0.4-1.9-0.9-2.8-1.3c-0.8-0.4-1.7-0.7-2.5-1.1c-1.1-0.5-2.1-0.9-3.2-1.3c-0.7-0.3-1.5-0.6-2.2-0.8 c-1.2-0.5-2.5-1-3.7-1.4c-0.5-0.2-1.1-0.4-1.7-0.6c-1.5-0.5-2.9-1-4.4-1.5c-0.3-0.1-0.6-0.2-0.9-0.3c-4.6-1.4-9.2-2.7-14-3.8 c5.7-3.1,11-5.8,15.9-8c8.2,6.5,15.9,13.8,22.9,21.9C237.6,81.1,237.3,81,237.1,80.9z M105.4,64.4c-2.9,0.5-5.7,1-8.6,1.5 c2.9-3.4,5.8-6.6,8.8-9.8C105.5,58.8,105.4,61.6,105.4,64.4z M46.7,160c-0.1,0.6-0.3,1.2-0.4,1.8c-0.1,0.4-0.2,0.9-0.3,1.3 c-0.1,0.5-0.2,1.1-0.4,1.6c-0.1,0.5-0.2,1.1-0.3,1.6c-0.1,0.4-0.2,0.9-0.3,1.3c-0.1,0.6-0.3,1.3-0.4,1.9c-0.1,0.4-0.1,0.7-0.2,1.1 c-0.1,0.7-0.3,1.4-0.4,2.1c0,0.3-0.1,0.6-0.1,0.9c-0.1,0.8-0.2,1.5-0.4,2.3c0,0.2-0.1,0.5-0.1,0.7c-0.1,0.8-0.2,1.6-0.3,2.4 c0,0.2-0.1,0.4-0.1,0.6c-0.1,0.8-0.2,1.7-0.3,2.5c0,0.2,0,0.4-0.1,0.6c-0.1,0.8-0.2,1.7-0.2,2.5c0,0.2,0,0.4-0.1,0.7 c-0.1,0.8-0.1,1.6-0.2,2.4c0,0.2,0,0.5-0.1,0.7c-0.1,0.8-0.1,1.5-0.1,2.3c0,0.3,0,0.6,0,0.9c0,0.7-0.1,1.4-0.1,2.1 c0,0.2,0,0.4,0,0.5c-3.2-8.8-5.7-17.7-7.4-26.7C38.2,165.6,42.2,162.8,46.7,160z M238.3,125.3c0.1-0.5,0.2-1,0.4-1.6 c0.1-0.5,0.2-1,0.4-1.5c0.1-0.5,0.2-0.9,0.3-1.4c0.1-0.6,0.3-1.2,0.4-1.9c0.1-0.4,0.1-0.7,0.2-1.1c0.1-0.7,0.3-1.4,0.4-2.2 c0.1-0.3,0.1-0.6,0.1-0.8c0.1-0.8,0.3-1.6,0.4-2.4c0-0.2,0.1-0.4,0.1-0.6c0.1-0.8,0.3-1.7,0.4-2.5c0-0.2,0-0.3,0.1-0.5 c0.1-0.9,0.3-1.8,0.4-2.7c0-0.1,0-0.3,0.1-0.4c0.1-0.9,0.2-1.8,0.3-2.7c0-0.1,0-0.3,0-0.4c0.1-0.9,0.2-1.8,0.3-2.7 c0-0.1,0-0.3,0-0.4c0.1-0.9,0.2-1.8,0.2-2.7c0-0.2,0-0.3,0-0.5c0.1-0.9,0.1-1.7,0.2-2.6c0-0.2,0-0.4,0-0.6c0-0.8,0.1-1.6,0.1-2.4 c0-0.1,0-0.3,0-0.4c3.2,8.8,5.7,17.7,7.4,26.7C246.9,119.7,242.8,122.5,238.3,125.3z M47.3,204.1c0.2,0.1,0.4,0.2,0.6,0.3 c0.7,0.4,1.5,0.7,2.2,1.1c1.1,0.5,2.1,1,3.2,1.5c0.7,0.3,1.4,0.6,2,0.9c1.2,0.5,2.4,1,3.6,1.5c0.6,0.2,1.2,0.5,1.7,0.7 c1.4,0.5,2.8,1.1,4.2,1.6c0.4,0.2,0.9,0.3,1.3,0.5c1.6,0.6,3.2,1.1,4.9,1.6c0.2,0.1,0.5,0.2,0.7,0.2c1.9,0.6,3.7,1.2,5.6,1.7 c0,0,0,0,0.1,0c2.8,0.8,5.7,1.6,8.6,2.3c-5.7,3.1-11,5.8-15.9,8C62,219.4,54.3,212.1,47.3,204.1z M194.4,214.9 c0.5,0.3,1,0.6,1.5,0.8c-0.9,0.2-1.8,0.4-2.7,0.6C193.6,215.9,194,215.4,194.4,214.9z M71.6,227.1c5.2-2.4,10.8-5.3,16.7-8.6 c2.6,0.6,5.2,1.1,7.8,1.6c0.4,0.4,0.8,0.9,1.1,1.3c0.2,0.2,0.3,0.4,0.5,0.6c0.6,0.6,1.1,1.3,1.7,1.9c0.2,0.2,0.3,0.4,0.5,0.6 c0.6,0.6,1.1,1.2,1.7,1.8c0.2,0.2,0.4,0.4,0.5,0.6c0.6,0.6,1.1,1.2,1.7,1.8c0.2,0.2,0.4,0.4,0.6,0.6c0.4,0.4,0.8,0.8,1.2,1.2 c-0.5,3.7-1.4,7.1-2.7,10.2c-0.7,1.7-1.6,3.3-2.6,4.8C90.4,240.3,80.7,234.2,71.6,227.1z M179.6,221c2.9-0.5,5.7-1,8.5-1.5 c-2.8,3.4-5.8,6.6-8.8,9.7C179.6,226.5,179.7,223.8,179.6,221z M183.2,39.3c-1.2,1.9-2.2,4-3,6.2c-1,2.5-1.7,5.2-2.2,8c0,0,0,0,0,0 c-0.2-0.2-0.4-0.4-0.6-0.6c-0.6-0.6-1.1-1.1-1.7-1.7c-0.2-0.2-0.4-0.4-0.6-0.5c-0.6-0.6-1.2-1.1-1.8-1.7c-0.2-0.2-0.3-0.3-0.5-0.5 c-0.6-0.6-1.2-1.2-1.9-1.7c-0.1-0.1-0.3-0.3-0.4-0.4c-0.6-0.6-1.3-1.2-1.9-1.7c-0.1-0.1-0.3-0.2-0.4-0.3c-0.7-0.6-1.3-1.2-2-1.7 c-0.1-0.1-0.2-0.2-0.4-0.3c-0.7-0.6-1.4-1.1-2.1-1.7c-0.1-0.1-0.2-0.2-0.3-0.3c-0.7-0.6-1.4-1.1-2.1-1.7c-0.1-0.1-0.2-0.2-0.3-0.3 c-0.7-0.5-1.4-1.1-2.1-1.6c-0.1-0.1-0.2-0.2-0.3-0.3c-0.7-0.5-1.4-1-2.1-1.6c-0.1-0.1-0.3-0.2-0.4-0.3c-0.7-0.5-1.4-1-2.1-1.5 c-0.1-0.1-0.3-0.2-0.4-0.3c-0.7-0.5-1.3-0.9-2-1.4c-0.2-0.1-0.4-0.2-0.5-0.4c-0.6-0.4-1.3-0.8-1.9-1.2c-0.2-0.1-0.4-0.3-0.7-0.4 c-0.6-0.4-1.2-0.7-1.8-1.1c-0.3-0.2-0.6-0.3-0.8-0.5c-0.5-0.3-1.1-0.6-1.6-0.9c-0.4-0.2-0.7-0.4-1.1-0.6c0,0,0,0,0,0 c0.4-0.2,0.8-0.4,1.2-0.7c0.1,0,0.1-0.1,0.2-0.1C157.7,28.5,170.7,33.1,183.2,39.3z M246.3,156.7c-3-0.5-6.1-1.3-9.3-2.6 c-0.2-0.6-0.3-1.2-0.5-1.7c-0.1-0.3-0.2-0.7-0.3-1c-0.2-0.7-0.4-1.4-0.6-2.1c-0.1-0.3-0.2-0.6-0.3-1c-0.2-0.7-0.5-1.4-0.7-2.2 c-0.1-0.3-0.2-0.6-0.3-0.9c-0.2-0.7-0.5-1.5-0.7-2.2c0-0.1-0.1-0.2-0.1-0.4c1.2-3.5,2.2-7,3.2-10.5c0-0.1,0-0.1,0-0.2 c0.2-0.9,0.5-1.7,0.7-2.6c0.1-0.2,0.1-0.4,0.2-0.7c0.1-0.4,0.2-0.8,0.3-1.2c4.8-3,9.2-5.9,13.1-8.7c2.3,12.7,3.2,25.5,2.7,38 C251.3,157.1,248.8,157.1,246.3,156.7z M252.5,115.6c-1.6-8.2-3.9-16.4-6.7-24.5c4.8,6.4,9,13.1,12.6,19.9 C256.6,112.5,254.6,114.1,252.5,115.6z M246.5,88.5c0.1,0,0.1,0.1,0.2,0.1c0.4,0.2,0.7,0.5,1.1,0.7c0.4,0.3,0.8,0.5,1.2,0.8 c0.3,0.2,0.7,0.5,1,0.7c0.4,0.3,0.8,0.5,1.2,0.8c0.3,0.2,0.7,0.5,1,0.7c0.4,0.3,0.8,0.5,1.2,0.8c0.3,0.2,0.6,0.4,0.9,0.7 c0.4,0.3,0.8,0.6,1.2,0.9c0.3,0.2,0.6,0.4,0.9,0.7c0.4,0.3,0.8,0.6,1.1,0.9c0.3,0.2,0.5,0.4,0.8,0.7c0.4,0.3,0.8,0.6,1.1,0.9 c0.3,0.2,0.5,0.4,0.8,0.6c0.4,0.3,0.7,0.6,1.1,1c0.2,0.2,0.5,0.4,0.7,0.6c0.4,0.3,0.7,0.7,1.1,1c0.2,0.2,0.4,0.4,0.7,0.6 c0.4,0.3,0.7,0.7,1,1c0.1,0.1,0.3,0.3,0.4,0.4c0.2,0.5,0.4,0.9,0.6,1.4c-1.6,1.6-3.4,3.4-5.5,5.1 C256.3,102.4,251.7,95.3,246.5,88.5z M32.5,169.7c1.6,8.2,3.9,16.4,6.7,24.5c-4.8-6.5-9-13.1-12.6-19.9 C28.5,172.8,30.4,171.3,32.5,169.7z M38.5,196.8C38.5,196.8,38.5,196.8,38.5,196.8c-0.5-0.3-0.9-0.6-1.3-0.8 c-0.3-0.2-0.7-0.4-1-0.6c-0.4-0.3-0.8-0.5-1.2-0.8c-0.3-0.2-0.6-0.4-0.9-0.6c-0.4-0.3-0.8-0.6-1.3-0.9c-0.3-0.2-0.6-0.4-0.8-0.6 c-0.4-0.3-0.9-0.6-1.3-0.9c-0.3-0.2-0.5-0.4-0.8-0.6c-0.4-0.3-0.9-0.7-1.3-1c-0.2-0.2-0.4-0.4-0.7-0.5c-0.4-0.3-0.9-0.7-1.3-1.1 c-0.2-0.2-0.4-0.3-0.6-0.5c-0.4-0.4-0.9-0.7-1.3-1.1c-0.2-0.1-0.3-0.3-0.5-0.4c-0.4-0.4-0.9-0.8-1.3-1.2c-0.1-0.1-0.3-0.3-0.4-0.4 c-0.4-0.4-0.9-0.8-1.3-1.2c-0.1-0.1-0.3-0.2-0.4-0.4c-0.3-0.3-0.5-0.5-0.8-0.8c-0.2-0.5-0.4-0.9-0.6-1.4c1.6-1.6,3.4-3.4,5.5-5.1 C28.8,183,33.3,190,38.5,196.8z M238.3,78.5c-6.6-7.4-13.7-14.1-21.2-20.2c2.8-1.2,5.5-2.3,8.1-3.3 C230.1,62.4,234.5,70.2,238.3,78.5z M215.6,57.2c-9.4-7.4-19.4-13.7-29.8-19c1.9-2.5,4.2-4.5,6.8-6.1c2.8-1.7,6-2.8,9.3-3.2 c8.2,7,15.6,15.4,22.2,24.7C221.5,54.7,218.6,55.9,215.6,57.2z M141.1,25.2c-0.2-0.1-0.5-0.3-0.7-0.4c0.3,0.1,0.7,0.1,1,0.2 C141.3,25.1,141.2,25.1,141.1,25.2z M11.3,115.9c0.2-0.3,0.4-0.7,0.7-1c0.1-0.2,0.3-0.4,0.4-0.6c0.3-0.5,0.7-1,1.1-1.5 c0.1-0.1,0.2-0.2,0.3-0.4c0.3-0.5,0.7-0.9,1-1.4c0.1-0.2,0.3-0.3,0.4-0.5c0.3-0.4,0.6-0.8,1-1.2c0.2-0.2,0.3-0.4,0.5-0.6 c0.1-0.1,0.2-0.3,0.4-0.4c0.2-0.2,0.3-0.4,0.5-0.5c0.2-0.3,0.5-0.6,0.7-0.8c0.2-0.2,0.4-0.4,0.5-0.6c0,0,0.1-0.1,0.1-0.1 c0.3-0.4,0.7-0.7,1-1.1c0.2-0.2,0.4-0.4,0.6-0.6c0.4-0.4,0.8-0.8,1.1-1.1c0.2-0.2,0.4-0.4,0.6-0.5c0.4-0.4,0.8-0.8,1.2-1.2 c0.2-0.2,0.4-0.3,0.6-0.5c0.4-0.4,0.9-0.8,1.3-1.2c0.2-0.2,0.4-0.3,0.5-0.5c0.5-0.4,0.9-0.8,1.4-1.2c0.2-0.1,0.4-0.3,0.5-0.4 c0.5-0.4,1-0.8,1.5-1.2c0.2-0.1,0.4-0.3,0.5-0.4c0.5-0.4,1-0.8,1.6-1.2c0.2-0.1,0.4-0.3,0.5-0.4c0.5-0.4,1.1-0.8,1.6-1.2 c0.2-0.1,0.4-0.3,0.6-0.4c0.1-0.1,0.2-0.1,0.3-0.2c-2.7,10.9-4.4,22.4-4.9,34.1c-3.5,0.5-6.7,1.6-9.7,3.4c-2.5,1.5-4.6,3.3-6.5,5.5 C11.9,129.3,11.2,122.6,11.3,115.9z M21.3,131.7c2.4-1.5,5.1-2.4,8-3c-0.4,12.9,0.5,26,3,39.1c-2.3,1.7-4.4,3.3-6.4,4.9 c-5.7-11.1-9.8-22.5-12.2-33.9C15.7,135.9,18.3,133.5,21.3,131.7z M46.7,206.7c6.5,7.3,13.7,14.1,21.3,20.2 c-2.8,1.2-5.5,2.3-8.1,3.3C54.9,223,50.5,215.1,46.7,206.7z M60.9,231.6c2.7-1,5.6-2.2,8.5-3.5c9.3,7.3,19.3,13.7,29.8,19 c-1.9,2.5-4.2,4.5-6.8,6.1c-2.8,1.7-6,2.8-9.3,3.2C74.9,249.3,67.5,241,60.9,231.6z M144,260.1c0.2,0.1,0.5,0.2,0.7,0.4 c-0.3-0.1-0.7-0.1-1-0.2C143.7,260.2,143.8,260.2,144,260.1z M236.7,54.6c0.1,0.4,0.2,0.7,0.3,1.1c0.1,0.2,0.1,0.5,0.2,0.8 c0.2,0.5,0.3,1.1,0.5,1.6c0.1,0.2,0.1,0.5,0.2,0.7c0.1,0.6,0.3,1.1,0.4,1.7c0.1,0.2,0.1,0.5,0.2,0.7c0.1,0.6,0.3,1.2,0.4,1.8 c0,0.2,0.1,0.5,0.1,0.7c0.1,0.6,0.2,1.2,0.4,1.8c0,0.2,0.1,0.5,0.1,0.7c0.1,0.6,0.2,1.3,0.3,1.9c0,0.2,0.1,0.4,0.1,0.7 c0.1,0.7,0.2,1.3,0.3,2c0,0.2,0.1,0.4,0.1,0.7c0.1,0.7,0.2,1.3,0.2,2c0,0.2,0,0.5,0.1,0.7c0.1,0.7,0.1,1.4,0.2,2 c0,0.3,0,0.5,0.1,0.8c0,0.7,0.1,1.3,0.1,2c0,0,0,0,0,0c-3.9-8.8-8.4-17-13.6-24.6c1.4-0.5,2.8-0.9,4.1-1.3c1.2-0.3,2.3-0.6,3.4-0.9 C235.4,53,236,53.8,236.7,54.6z M113.3,30.4c1.3-2.9,2.8-5.6,4.5-8.1c5.2,0.2,10.4,0.6,15.7,1.4c0.5,0.2,0.9,0.4,1.4,0.7 c0.3,0.2,0.6,0.3,0.9,0.5c0.6,0.3,1.2,0.6,1.8,0.9c0.4,0.2,0.7,0.4,1.1,0.6c0.1,0,0.2,0.1,0.2,0.1c0,0-0.1,0-0.1,0.1 c-0.4,0.2-0.7,0.4-1.1,0.7c-0.5,0.3-1,0.6-1.4,0.9c-0.4,0.2-0.8,0.5-1.1,0.7c-0.5,0.3-0.9,0.6-1.4,0.9c-0.4,0.3-0.8,0.5-1.2,0.8 c-0.4,0.3-0.9,0.6-1.3,0.9c-0.4,0.3-0.9,0.6-1.3,0.9c-0.4,0.3-0.8,0.5-1.1,0.8c-0.5,0.3-0.9,0.7-1.4,1c-0.3,0.2-0.7,0.5-1,0.7 c-0.5,0.4-1,0.8-1.6,1.2c-0.3,0.2-0.5,0.4-0.8,0.6c-0.6,0.5-1.2,0.9-1.7,1.4c-0.2,0.1-0.4,0.3-0.6,0.5c-0.6,0.5-1.3,1-1.9,1.6 c-0.1,0.1-0.2,0.2-0.3,0.3c-0.7,0.6-1.4,1.2-2.2,1.8c0,0,0,0,0,0c-3.3,2.9-6.6,5.9-9.8,9C108.7,43.5,110.6,36.6,113.3,30.4z M48.4,230.7c-0.1-0.4-0.2-0.7-0.3-1.1c-0.1-0.3-0.2-0.7-0.3-1.1c-0.1-0.4-0.3-0.9-0.4-1.3c-0.1-0.3-0.2-0.7-0.3-1 c-0.1-0.5-0.2-1-0.4-1.4c-0.1-0.3-0.1-0.6-0.2-0.9c-0.1-0.5-0.2-1-0.3-1.6c-0.1-0.3-0.1-0.6-0.2-0.9c-0.1-0.6-0.2-1.1-0.3-1.7 c0-0.3-0.1-0.5-0.1-0.8c-0.1-0.6-0.2-1.2-0.3-1.8c0-0.3-0.1-0.5-0.1-0.8c-0.1-0.6-0.2-1.3-0.3-1.9c0-0.2-0.1-0.5-0.1-0.7 c-0.1-0.6-0.2-1.3-0.2-2c0-0.2,0-0.5-0.1-0.8c-0.1-0.7-0.1-1.3-0.2-2c0-0.3,0-0.5-0.1-0.8c0-0.6-0.1-1.3-0.1-1.9c0,0,0,0,0,0 c3.9,8.8,8.4,17,13.6,24.6c-1.4,0.5-2.8,0.9-4.1,1.3c-1.2,0.3-2.3,0.6-3.3,0.9C49.6,232.3,49,231.5,48.4,230.7z M92.7,255.2 c3.1-1.8,5.7-4.3,7.9-7.3c11.9,5.9,24.3,10.4,36.9,13.4c-0.1,0.1-0.3,0.1-0.4,0.2c-0.4,0.2-0.8,0.4-1.2,0.6 c-0.4,0.2-0.8,0.4-1.2,0.6c-0.4,0.2-0.8,0.4-1.2,0.6c-0.4,0.2-0.8,0.3-1.1,0.5c-0.4,0.2-0.8,0.4-1.3,0.6c-0.4,0.2-0.7,0.3-1.1,0.5 c-0.4,0.2-0.9,0.4-1.3,0.5c-0.4,0.1-0.7,0.3-1.1,0.4c-0.4,0.2-0.9,0.3-1.3,0.5c-0.3,0.1-0.7,0.3-1,0.4c-0.4,0.2-0.9,0.3-1.3,0.5 c-0.3,0.1-0.7,0.2-1,0.3c-0.4,0.1-0.9,0.3-1.3,0.4c-0.3,0.1-0.7,0.2-1,0.3c-0.4,0.1-0.9,0.3-1.3,0.4c-0.3,0.1-0.6,0.2-1,0.3 c-0.5,0.1-0.9,0.2-1.4,0.4c-0.3,0.1-0.6,0.2-0.9,0.2c-0.5,0.1-0.9,0.2-1.4,0.3c-0.3,0.1-0.6,0.1-0.9,0.2c-0.5,0.1-0.9,0.2-1.4,0.3 c-0.3,0.1-0.6,0.1-0.9,0.2c-0.5,0.1-0.9,0.2-1.4,0.2c-0.3,0-0.6,0.1-0.9,0.1c-0.5,0.1-0.9,0.1-1.4,0.2c-0.3,0-0.6,0.1-0.8,0.1 c-0.5,0.1-0.9,0.1-1.4,0.2c-0.3,0-0.5,0-0.8,0.1c-0.1,0-0.2,0-0.2,0c-6.9-3.6-13.4-8-19.6-13C87.8,257.5,90.4,256.6,92.7,255.2z M171.7,254.9c-1.3,2.9-2.8,5.6-4.5,8.1c-5.2-0.2-10.4-0.6-15.7-1.4c-0.1-0.1-0.3-0.1-0.4-0.2c-0.6-0.3-1.1-0.5-1.7-0.8 c-0.3-0.1-0.6-0.3-0.9-0.4c-0.5-0.2-1-0.5-1.5-0.8c-0.3-0.2-0.7-0.4-1-0.5c0.4-0.3,0.9-0.5,1.3-0.8c0.4-0.2,0.7-0.5,1.1-0.7 c0.5-0.3,1-0.6,1.4-0.9c0.4-0.2,0.7-0.5,1.1-0.7c0.5-0.3,1-0.7,1.5-1c0.3-0.2,0.7-0.4,1-0.7c0.5-0.4,1-0.7,1.6-1.1 c0.3-0.2,0.6-0.4,0.9-0.6c0.6-0.4,1.1-0.8,1.7-1.2c0.2-0.2,0.5-0.4,0.7-0.5c0.6-0.4,1.2-0.9,1.8-1.4c0.2-0.1,0.4-0.3,0.6-0.4 c0.7-0.5,1.3-1,2-1.5c0.1-0.1,0.2-0.2,0.3-0.3c0.7-0.6,1.4-1.2,2.1-1.7c0,0,0.1-0.1,0.1-0.1c4.1-3.4,8.2-7.1,12.1-11 C176.3,241.8,174.5,248.8,171.7,254.9z M243.7,207.7c0-0.5,0-1,0.1-1.5c0-0.5,0-0.9,0.1-1.4c0-0.5,0-1,0-1.5c0-0.5,0-0.9,0-1.4 c0-0.5,0-1,0-1.5c0-0.4,0-0.8,0-1.3c0.3-0.2,0.7-0.4,1-0.6c0.4-0.3,0.9-0.5,1.3-0.8c0.3-0.2,0.7-0.4,1-0.6 c-1.1,3.7-2.3,7.3-3.6,10.8C243.7,207.8,243.7,207.8,243.7,207.7z M262.9,97.9c-0.4-0.3-0.8-0.7-1.1-1c-0.2-0.2-0.4-0.4-0.6-0.5 c-0.4-0.4-0.9-0.7-1.3-1.1c-0.2-0.2-0.5-0.4-0.7-0.6c-0.4-0.3-0.9-0.7-1.3-1c-0.2-0.2-0.5-0.4-0.7-0.6c-0.4-0.3-0.9-0.7-1.3-1 c-0.3-0.2-0.5-0.4-0.8-0.6c-0.4-0.3-0.9-0.6-1.3-0.9c-0.3-0.2-0.6-0.4-0.9-0.6c-0.4-0.3-0.9-0.6-1.3-0.9c-0.3-0.2-0.6-0.4-1-0.6 c-0.4-0.3-0.9-0.6-1.3-0.8c-0.4-0.2-0.7-0.5-1.1-0.7c-0.4-0.3-0.8-0.5-1.3-0.8c-0.4-0.2-0.8-0.5-1.2-0.7c-0.1-0.1-0.3-0.2-0.4-0.2 c4.2-0.4,7.9-0.6,11.2-0.6C258.7,89,260.8,93.4,262.9,97.9z M243.9,83.7c2.5-3.8,4.5-7.1,6.1-10.1c1.9,3.1,3.7,6.2,5.4,9.3 C251.6,83,247.6,83.3,243.9,83.7z M243.1,81.8c0-0.1,0-0.2,0-0.4c0-0.5,0-1-0.1-1.6c0-0.4,0-0.9-0.1-1.3c0-0.5-0.1-1-0.1-1.5 c0-0.4-0.1-0.9-0.1-1.3c0-0.5-0.1-1-0.1-1.5c0-0.4-0.1-0.9-0.1-1.3c-0.1-0.5-0.1-1-0.2-1.5c-0.1-0.4-0.1-0.9-0.2-1.3 c-0.1-0.5-0.1-0.9-0.2-1.4c-0.1-0.4-0.1-0.9-0.2-1.3c-0.1-0.5-0.2-0.9-0.2-1.4c-0.1-0.4-0.1-0.9-0.2-1.3c-0.1-0.4-0.2-0.9-0.3-1.3 c-0.1-0.4-0.2-0.9-0.3-1.3c-0.1-0.4-0.2-0.8-0.3-1.3c-0.1-0.4-0.2-0.9-0.3-1.3c0-0.1,0-0.2-0.1-0.3c3,4.1,5.9,8.3,8.6,12.6 C247.5,74.8,245.6,78,243.1,81.8z M41.2,201.6c-2.5,3.8-4.5,7.1-6.1,10.1c-1.9-3.1-3.7-6.2-5.4-9.3 C33.1,202.3,36.9,202.1,41.2,201.6z M41.9,203.6c0,0.1,0,0.3,0,0.4c0,0.5,0,1,0.1,1.5c0,0.5,0,0.9,0.1,1.4c0,0.5,0.1,1,0.1,1.5 c0,0.5,0.1,0.9,0.1,1.4c0,0.5,0.1,1,0.1,1.4c0,0.5,0.1,0.9,0.1,1.4c0,0.5,0.1,0.9,0.2,1.4s0.1,0.9,0.2,1.4c0.1,0.4,0.1,0.9,0.2,1.3 c0.1,0.5,0.1,0.9,0.2,1.4c0.1,0.4,0.1,0.9,0.2,1.3c0.1,0.5,0.1,0.9,0.2,1.4c0.1,0.4,0.2,0.8,0.2,1.2c0.1,0.5,0.2,0.9,0.3,1.4 c0.1,0.4,0.2,0.8,0.3,1.2c0.1,0.4,0.2,0.9,0.3,1.3c0,0.1,0,0.2,0.1,0.3c-3-4.1-5.9-8.3-8.6-12.6C37.6,210.6,39.5,207.3,41.9,203.6z M201,216.5c8.7-2.3,17.1-5.1,24.9-8.4c0.1-0.1,0.3-0.1,0.4-0.2c1.4-0.6,2.7-1.2,4.1-1.8c0.6-0.3,1.2-0.5,1.8-0.8c1-0.5,2-1,3-1.5 c0.9-0.4,1.7-0.9,2.6-1.3c0.9-0.4,1.7-0.9,2.5-1.4c0.5-0.3,0.9-0.5,1.4-0.8c0,0,0,0,0,0c0,0.5,0,0.9,0,1.4c0,0.5,0,1,0,1.5 c0,0.4,0,0.9,0,1.3c0,0.5,0,1-0.1,1.5c0,0.4,0,0.9-0.1,1.3c0,0.5-0.1,1-0.1,1.5c0,0.4-0.1,0.8-0.1,1.2c0,0.5-0.1,1-0.1,1.5 c0,0.4-0.1,0.8-0.1,1.2c-0.1,0.5-0.1,1-0.2,1.5c0,0.2,0,0.4-0.1,0.5c-1.3,3-2.7,5.9-4.2,8.8C225.9,224.8,213.8,222.4,201,216.5z M272.7,171.1c-0.4,0.6-0.9,1.2-1.3,1.8c-0.1,0.2-0.3,0.4-0.4,0.5c-0.3,0.4-0.7,0.9-1,1.3c-0.2,0.2-0.3,0.4-0.5,0.6 c-0.3,0.4-0.6,0.8-1,1.2c-0.2,0.2-0.4,0.4-0.6,0.7c-0.3,0.4-0.7,0.7-1,1.1c-0.2,0.2-0.4,0.4-0.6,0.6c-0.3,0.4-0.7,0.8-1.1,1.1 c-0.2,0.2-0.4,0.4-0.6,0.6c-0.4,0.4-0.7,0.8-1.1,1.1c-0.2,0.2-0.4,0.4-0.6,0.6c-0.4,0.4-0.8,0.8-1.2,1.1c-0.2,0.2-0.4,0.3-0.6,0.5 c-0.4,0.4-0.9,0.8-1.3,1.2c-0.2,0.2-0.4,0.3-0.6,0.5c-0.5,0.4-0.9,0.8-1.4,1.2c-0.2,0.1-0.4,0.3-0.5,0.4c-0.5,0.4-1,0.8-1.5,1.2 c-0.2,0.1-0.4,0.3-0.5,0.4c-0.5,0.4-1,0.8-1.6,1.2c-0.2,0.1-0.4,0.3-0.5,0.4c-0.5,0.4-1.1,0.8-1.6,1.2c-0.2,0.1-0.4,0.3-0.6,0.4 c-0.1,0.1-0.2,0.1-0.3,0.2c2.8-10.9,4.4-22.4,4.9-34.1c3.5-0.5,6.7-1.6,9.7-3.4c2.5-1.5,4.6-3.3,6.5-5.6c1.2,6.8,1.9,13.5,1.9,20.2 C273.4,170,273.1,170.5,272.7,171.1z M45.5,62.2C45.6,62.2,45.6,62.2,45.5,62.2c0,0.1,0,0.1,0,0.2c0,0,0,0,0-0.1 C45.5,62.2,45.5,62.2,45.5,62.2z M41.4,77.6c0,0.4,0,0.9-0.1,1.4c0,0.5,0,1-0.1,1.5c0,0.4,0,0.9,0,1.3c0,0.5,0,1,0,1.6 c0,0.4,0,0.9,0,1.3c0,0.5,0,1,0,1.4c-0.4,0.2-0.8,0.5-1.2,0.7c-0.4,0.2-0.8,0.5-1.2,0.7c-0.3,0.2-0.7,0.4-1,0.6 c1.1-3.7,2.3-7.3,3.6-10.8C41.4,77.5,41.4,77.6,41.4,77.6z M273.1,143.7c-2.5-10.9-6.6-21.9-12.1-32.5c1.5-1.3,2.9-2.5,4.2-3.8 c0.4-0.4,0.8-0.8,1.2-1.1c4.1,10.4,7.3,21,9.3,31.4C275,139.9,274.1,141.8,273.1,143.7z M11.9,141.7c2.5,11,6.6,21.9,12.1,32.5 c-1.5,1.3-2.9,2.5-4.2,3.8c-0.4,0.4-0.8,0.8-1.2,1.1c-4.1-10.4-7.3-21-9.3-31.4C10.1,145.5,10.9,143.5,11.9,141.7z M15.5,177.3 c-0.2-0.2-0.4-0.4-0.6-0.7c-0.1-0.1-0.2-0.2-0.2-0.3c-0.4-0.5-0.8-1-1.1-1.4c-0.1-0.1-0.1-0.2-0.2-0.3c-0.4-0.5-0.7-1-1.1-1.5 c-0.1-0.1-0.1-0.2-0.2-0.3c-0.3-0.5-0.7-1-1-1.5c-0.1-0.1-0.1-0.2-0.2-0.3c-0.3-0.5-0.6-1-0.9-1.4c-0.1-0.1-0.1-0.2-0.2-0.3 c-0.3-0.5-0.6-1-0.8-1.4c-0.1-0.1-0.1-0.3-0.2-0.4c-0.3-0.5-0.5-0.9-0.7-1.4c-0.1-0.1-0.1-0.3-0.2-0.4c-0.2-0.5-0.4-0.9-0.7-1.4 c0,0,0,0,0,0c0-4.1,0.3-8,1-11.5C9.9,160.9,12.4,169.1,15.5,177.3z M239.5,223.2c0-0.1,0.1-0.1,0.1-0.2c0,0,0,0,0,0 C239.5,223.1,239.5,223.1,239.5,223.2C239.5,223.2,239.5,223.2,239.5,223.2z M233.5,50.7c-0.6,0.1-1.1,0.3-1.7,0.5 c-1.7,0.5-3.6,1.1-5.5,1.8c-6.3-9.1-13.4-17.2-21.2-24.2c2.4,0,5,0.2,7.6,0.7C220.1,35.7,227,42.9,233.5,50.7z M202.8,26.7 c-5.7-4.9-11.7-9.1-18-12.8c0.3,0,0.6,0,1,0c0.2,0,0.4,0,0.6,0c0.5,0,1,0,1.6,0c0.2,0,0.4,0,0.5,0c0.5,0,1,0.1,1.5,0.1 c0.2,0,0.4,0,0.5,0.1c0.2,0,0.4,0,0.6,0.1c6.2,3.5,12.3,7.7,18.2,12.4C207.1,26.4,204.9,26.5,202.8,26.7z M175.5,12.4 c-0.2,0-0.5,0.1-0.7,0.1c-0.5,0.1-1,0.2-1.5,0.3c-0.3,0-0.5,0.1-0.8,0.1c-0.5,0.1-1,0.2-1.5,0.3c-0.3,0.1-0.5,0.1-0.8,0.2 c-0.5,0.1-1,0.2-1.5,0.4c-0.3,0.1-0.6,0.1-0.9,0.2c-0.5,0.1-1,0.3-1.4,0.4c-0.3,0.1-0.6,0.2-0.9,0.3c-0.5,0.1-0.9,0.3-1.4,0.4 c-0.3,0.1-0.6,0.2-1,0.3c-0.5,0.1-0.9,0.3-1.4,0.5c-0.3,0.1-0.7,0.2-1,0.3c-0.4,0.2-0.9,0.3-1.3,0.5c-0.4,0.1-0.7,0.3-1.1,0.4 c-0.4,0.2-0.8,0.3-1.3,0.5c-0.4,0.2-0.8,0.3-1.2,0.5c-0.4,0.2-0.8,0.3-1.2,0.5c-0.4,0.2-0.8,0.3-1.2,0.5c-0.4,0.2-0.8,0.4-1.2,0.5 c-0.4,0.2-0.9,0.4-1.3,0.6c-0.4,0.2-0.7,0.4-1.1,0.5c-0.4,0.2-0.9,0.4-1.4,0.6c-0.4,0.2-0.7,0.4-1.1,0.5c-0.5,0.2-0.9,0.5-1.4,0.7 c-0.3,0.2-0.7,0.4-1,0.5c-0.2,0.1-0.4,0.2-0.5,0.3c-3.5-0.8-7-1.4-10.5-1.9c0,0-0.1,0-0.1-0.1c-0.4-0.2-0.7-0.3-1.1-0.5 c-0.5-0.2-0.9-0.4-1.4-0.6c-0.3-0.1-0.6-0.3-0.9-0.4c-0.5-0.2-1-0.4-1.5-0.7c-0.3-0.1-0.5-0.2-0.8-0.3c-0.6-0.2-1.1-0.4-1.7-0.7 c-0.2-0.1-0.4-0.2-0.7-0.2c-0.6-0.2-1.2-0.4-1.8-0.7c-0.2-0.1-0.4-0.1-0.6-0.2c-0.4-0.1-0.8-0.3-1.2-0.4c2.8-3,5.8-5.5,9.3-7.5 c5-3,10.5-4.8,16.5-5.6c6,0.8,12.1,2.2,18,4.3c3.6,1.2,7.1,2.7,10.6,4.3C176.2,12.3,175.9,12.4,175.5,12.4z M115.5,22.2 c-1.3,2.1-2.5,4.4-3.6,6.8c-3.2,7-5.1,15.1-6,24c-4.2,4.3-8.2,8.8-12.1,13.5c-2.4,0.5-4.8,1.1-7.2,1.7c-13.2-6.6-25.8-9.4-37.1-8.6 C55.7,48,63.5,37.6,72.8,28.9C86.2,24.1,100.6,22,115.5,22.2z M6.9,123.8C6.9,123.8,6.9,123.8,6.9,123.8c0.1-0.3,0.2-0.5,0.4-0.8 c0.1-0.2,0.2-0.5,0.4-0.7c0.1-0.1,0.1-0.2,0.2-0.3c0.1-0.2,0.2-0.5,0.4-0.7c0.1-0.3,0.3-0.5,0.4-0.8c0.1-0.1,0.1-0.2,0.2-0.3 c0.1-0.2,0.2-0.4,0.3-0.6c0.2,6.3,1,12.6,2.3,18.9c-1,1.5-1.9,3-2.6,4.7C7.6,136.7,7,130.2,6.9,123.8z M51.5,234.6 c0.6-0.1,1.1-0.3,1.7-0.5c1.7-0.5,3.6-1.1,5.5-1.8c6.3,9.1,13.4,17.2,21.2,24.2c-2.4,0-5-0.2-7.6-0.7C65,249.6,58,242.5,51.5,234.6 z M193.9,270.1c-0.1,0-0.2,0-0.3,0c-0.3,0-0.7,0.1-1,0.1c-0.3,0-0.7,0.1-1,0.1c-0.4,0-0.7,0.1-1.1,0.1c-0.3,0-0.6,0-1,0 c-0.4,0-0.8,0-1.2,0c-0.3,0-0.6,0-0.9,0c-0.4,0-0.8,0-1.2,0c-0.3,0-0.6,0-0.8,0c-0.4,0-0.9,0-1.3,0c-0.3,0-0.5,0-0.8,0 c-0.5,0-0.9-0.1-1.4-0.1c-0.2,0-0.5,0-0.7-0.1c-0.5,0-1-0.1-1.5-0.1c-0.2,0-0.4-0.1-0.6-0.1c-0.5-0.1-1.1-0.1-1.6-0.2 c-0.2,0-0.4-0.1-0.6-0.1c-0.6-0.1-1.1-0.2-1.7-0.3c-0.2,0-0.4-0.1-0.5-0.1c-0.6-0.1-1.2-0.2-1.8-0.3c-0.2,0-0.3-0.1-0.5-0.1 c-0.6-0.1-1.2-0.3-1.8-0.4c-0.1,0-0.3-0.1-0.4-0.1c-0.6-0.2-1.3-0.3-1.9-0.5c-0.1,0-0.2-0.1-0.4-0.1c-0.5-0.1-0.9-0.3-1.4-0.4 c0.5-0.7,1-1.4,1.5-2.1c1.4,0,2.7,0.1,4.1,0.1c12.5,0,24.5-1.7,35.7-5.1C203.5,264,198.9,267.3,193.9,270.1z M169.5,263.1 c1.3-2.1,2.5-4.4,3.6-6.8c3.2-7,5.1-15.1,6-24c4.2-4.3,8.2-8.8,12.1-13.5c2.5-0.5,4.9-1.1,7.3-1.7c11.6,5.8,22.8,8.7,33.2,8.7 c0,0,0,0,0,0c1.3,0,2.6-0.1,3.9-0.2c-6.3,11.7-14.1,22.1-23.4,30.8C198.9,261.2,184.4,263.4,169.5,263.1z M91.1,15.2 c1.1-0.1,2.2-0.2,3.3-0.3c1.2-0.1,2.4-0.1,3.6-0.1c0.8,0,1.7,0,2.5,0c0.3,0,0.6,0,0.9,0c0.6,0,1.1,0.1,1.7,0.1c0.3,0,0.7,0.1,1,0.1 c0.5,0,1,0.1,1.5,0.1c0.3,0,0.7,0.1,1.1,0.1c0.5,0.1,1,0.1,1.5,0.2c0.4,0.1,0.7,0.1,1.1,0.2c0.5,0.1,1,0.2,1.5,0.3 c0.3,0.1,0.7,0.1,1,0.2c0.5,0.1,1,0.2,1.6,0.3c0.3,0.1,0.7,0.2,1,0.2c0.5,0.1,1.1,0.3,1.6,0.4c0.3,0.1,0.6,0.2,1,0.3 c0.6,0.1,1.1,0.3,1.7,0.5c-0.5,0.7-1.1,1.4-1.6,2.1c-13.8-0.4-27.2,1.2-39.8,5C81.6,21.3,86.2,18,91.1,15.2z M17.8,183.3 c2.4,5.8,5.2,11.6,8.2,17.3c-5.6-0.3-9.5-1.4-11.8-3.2c-0.7-1.8-1.4-3.5-2-5.3c0.4-2.6,2.2-5.6,5.3-9.1 C17.6,183,17.7,183.2,17.8,183.3z M119.1,277.4c-3.6-1.2-7.1-2.7-10.6-4.3c0,0,0,0,0.1,0c0.5-0.1,1-0.1,1.5-0.2 c0.4-0.1,0.9-0.2,1.3-0.2c0.5-0.1,1-0.2,1.4-0.3c0.4-0.1,0.9-0.2,1.3-0.3c0.5-0.1,1-0.2,1.4-0.3c0.5-0.1,0.9-0.2,1.4-0.3 c0.5-0.1,0.9-0.2,1.4-0.4c0.5-0.1,0.9-0.3,1.4-0.4c0.5-0.1,0.9-0.3,1.4-0.4c0.5-0.1,1-0.3,1.4-0.5c0.5-0.1,0.9-0.3,1.4-0.4 c0.5-0.2,1-0.3,1.4-0.5c0.5-0.2,0.9-0.3,1.4-0.5c0.5-0.2,1-0.4,1.5-0.6c0.5-0.2,0.9-0.4,1.4-0.5c0.5-0.2,1-0.4,1.5-0.6 c0.5-0.2,0.9-0.4,1.4-0.6c0.5-0.2,1-0.5,1.5-0.7c0.5-0.2,0.9-0.4,1.4-0.6c0.5-0.2,1-0.5,1.5-0.8c0.5-0.2,0.9-0.5,1.4-0.7 c0.5-0.3,1-0.5,1.5-0.8c0.3-0.2,0.6-0.3,0.9-0.5c3.5,0.8,7,1.4,10.5,1.9c0.1,0.1,0.3,0.1,0.4,0.2c0.7,0.3,1.3,0.6,2,0.9 c0.2,0.1,0.3,0.1,0.5,0.2c0.8,0.3,1.5,0.7,2.3,1c0,0,0,0,0,0c2.2,0.9,4.3,1.7,6.5,2.4c-2.7,3-5.8,5.5-9.3,7.5 c-5,3-10.5,4.8-16.5,5.6C131.1,280.9,125.1,279.4,119.1,277.4z M253.7,217.9c-3.7,2.2-7.7,3.8-11.9,4.8c0-0.2,0.1-0.3,0.1-0.5 c0.1-0.3,0.1-0.6,0.2-0.9c0.1-0.5,0.2-1.1,0.3-1.6c0.1-0.3,0.1-0.7,0.2-1c0.1-0.5,0.1-1,0.2-1.6c0.1-0.4,0.1-0.7,0.2-1.1 c0-0.1,0-0.3,0.1-0.4c2.8-6.5,5.1-13.3,7.1-20.3c0.3-0.2,0.6-0.4,1-0.6c0.4-0.3,0.8-0.5,1.2-0.8c0.4-0.3,0.8-0.5,1.1-0.8 c0.4-0.3,0.7-0.5,1.1-0.8c0.4-0.3,0.7-0.5,1.1-0.8c0.4-0.3,0.7-0.5,1-0.8c0.4-0.3,0.7-0.6,1.1-0.8c0.3-0.3,0.7-0.5,1-0.8 c0.4-0.3,0.7-0.6,1.1-0.9c0.3-0.3,0.6-0.5,0.9-0.8c0.4-0.3,0.7-0.6,1.1-0.9c0.3-0.2,0.6-0.5,0.8-0.8c0.4-0.3,0.7-0.6,1.1-1 c0.3-0.2,0.5-0.5,0.8-0.7c0.4-0.3,0.7-0.7,1.1-1c0.2-0.2,0.5-0.5,0.7-0.7c0.4-0.4,0.7-0.7,1.1-1.1c0.2-0.2,0.4-0.4,0.6-0.7 c0.4-0.4,0.7-0.8,1.1-1.1c0.2-0.2,0.4-0.4,0.6-0.6c0.4-0.4,0.7-0.8,1-1.2c0.2-0.2,0.3-0.4,0.5-0.6c0.4-0.4,0.7-0.8,1-1.3 c0.1-0.2,0.3-0.4,0.4-0.5c0.3-0.4,0.7-0.9,1-1.3c0.1-0.1,0.2-0.3,0.3-0.4c-0.2,4.7-0.7,9.3-1.5,13.9c-1.1,6.2-2.8,12.2-5.1,17.8 C263.4,210.5,259,214.8,253.7,217.9z M267.5,102.4c-0.1-0.1-0.2-0.2-0.3-0.4c0,0,0,0,0,0c-2.4-5.8-5.2-11.6-8.1-17.2 c5.6,0.3,9.6,1.4,11.8,3.2c0.7,1.8,1.4,3.5,2,5.3C272.4,95.8,270.6,98.9,267.5,102.4z M250,69.4c-3.6-5.6-7.4-11-11.4-16.1 c-0.1-0.4-0.2-0.7-0.3-1.1c-0.1-0.2-0.1-0.4-0.2-0.6c4.3-0.7,7.7-0.5,10.1,0.4c1.5,1.6,2.9,3.2,4.3,5C253,59.6,252.6,63.6,250,69.4 z M35,215.9c3.6,5.7,7.5,11.1,11.5,16.2c0.1,0.3,0.2,0.6,0.3,0.9c0.1,0.2,0.2,0.4,0.2,0.6c-4.3,0.7-7.7,0.5-10.1-0.4 c-1.5-1.6-2.9-3.3-4.3-5C32,225.7,32.4,221.8,35,215.9z M258,83c-2.2-4-4.4-7.9-6.8-11.7c2.3-4.8,3.3-8.5,3.6-11.4 c5.8,7.6,10.8,16.1,14.7,24.9C266.4,83.6,262.4,83.1,258,83z M27,202.4c1.3,2.3,2.5,4.6,3.9,6.9c1,1.6,1.9,3.2,2.9,4.8 c-2.3,4.7-3.3,8.4-3.5,11.3c-5.8-7.6-10.8-16.1-14.7-24.9C18.4,201.7,22.2,202.3,27,202.4z M229.1,248.7c-3.7,2.1-7.5,4-11.4,5.6 c8.1-8.4,15-18.2,20.6-28.9c0.2,0,0.5-0.1,0.7-0.1c0,0.1,0,0.1,0,0.2c-0.1,0.4-0.2,0.9-0.3,1.3c-0.1,0.4-0.2,0.7-0.3,1.1 c-0.1,0.4-0.2,0.9-0.4,1.3c-0.1,0.4-0.2,0.7-0.3,1.1c-0.1,0.4-0.3,0.8-0.4,1.3c-0.1,0.3-0.2,0.7-0.3,1c-0.1,0.4-0.3,0.8-0.4,1.3 c-0.1,0.3-0.2,0.6-0.3,1c-0.2,0.5-0.4,0.9-0.5,1.4c-0.1,0.3-0.2,0.5-0.3,0.8c-0.3,0.7-0.6,1.4-0.9,2.1 C232.9,242.5,231.1,245.7,229.1,248.7z M274.5,188c1.1-5.9,1.6-11.9,1.6-18c0.7-1.1,1.4-2.2,2-3.3c-0.3,9.4-1.8,17.9-4.5,25.4 C274,190.7,274.2,189.4,274.5,188z M274.3,110.5c-0.5-0.6-0.9-1.2-1.4-1.9c-0.3-0.3-0.5-0.7-0.8-1c-0.2-0.3-0.4-0.6-0.7-0.8 c-0.3-0.4-0.7-0.8-1-1.1c-0.2-0.2-0.4-0.4-0.6-0.7c-0.4-0.4-0.7-0.8-1.1-1.2c0,0,0,0,0-0.1c2.3-2.6,4-4.9,5.1-7.1 c2,6.4,3.3,12.7,3.8,18.9C276.7,113.9,275.5,112.2,274.3,110.5z M237.4,49.8c-0.1-0.3-0.2-0.6-0.4-0.9c-0.2-0.4-0.3-0.8-0.5-1.2 c-0.2-0.4-0.3-0.8-0.5-1.1c-0.2-0.4-0.3-0.7-0.5-1.1c-0.3-0.7-0.7-1.5-1-2.2c-0.9-1.9-1.9-3.7-2.9-5.4c4.8,3.2,9.5,7.1,13.8,11.5 C243.2,49.1,240.5,49.2,237.4,49.8z M186.1,11.6c-0.5,0-1,0-1.5,0c-0.2,0-0.5,0-0.7,0c-0.5,0-1,0-1.6,0.1c-0.2,0-0.4,0-0.7,0 c-0.2,0-0.5,0-0.7,0.1c-4.6-2.4-9.4-4.5-14.3-6.2c-2.2-0.8-4.4-1.4-6.7-2c1.9,0.2,3.7,0.5,5.5,0.8c0.4,0.1,0.8,0.1,1.1,0.2 C172.9,6,179.4,8.3,186.1,11.6C186.1,11.6,186.1,11.6,186.1,11.6z M31.3,67.4c3.7-2.2,7.7-3.8,11.9-4.8c0,0,0,0.1,0,0.1 c-0.1,0.4-0.2,0.8-0.2,1.3c-0.1,0.4-0.2,0.9-0.2,1.3c-0.1,0.4-0.1,0.8-0.2,1.3c-0.1,0.4-0.1,0.9-0.2,1.4c-0.1,0.4-0.1,0.9-0.2,1.3 c0,0.1,0,0.3,0,0.4C39.3,76.2,36.9,83,35,90c-0.3,0.2-0.6,0.4-0.9,0.6c0,0-0.1,0-0.1,0.1c-0.4,0.3-0.8,0.5-1.2,0.8 c-0.3,0.2-0.7,0.5-1,0.7c0,0-0.1,0-0.1,0.1c-0.4,0.3-0.8,0.5-1.1,0.8c-0.3,0.2-0.7,0.5-1,0.7c0,0-0.1,0-0.1,0.1 c-0.4,0.3-0.7,0.6-1.1,0.8c-0.3,0.3-0.7,0.5-1,0.8c0,0,0,0-0.1,0.1c-0.3,0.3-0.7,0.6-1,0.8c-0.3,0.3-0.7,0.5-1,0.8c0,0,0,0-0.1,0.1 c-0.3,0.3-0.6,0.6-1,0.8c-0.3,0.3-0.6,0.5-1,0.8c0,0,0,0-0.1,0.1c-0.3,0.3-0.6,0.6-0.9,0.8c-0.3,0.3-0.6,0.6-0.9,0.8 c0,0,0,0-0.1,0.1c-0.3,0.3-0.6,0.6-0.9,0.8c-0.3,0.3-0.6,0.6-0.9,0.9c0,0,0,0,0,0c-0.3,0.2-0.5,0.5-0.7,0.7c0,0-0.1,0.1-0.1,0.1 c-0.3,0.3-0.6,0.6-0.8,0.8c0,0,0,0,0,0c-0.1,0.1-0.2,0.2-0.3,0.4c-0.2,0.2-0.4,0.4-0.6,0.7c-0.2,0.2-0.5,0.5-0.7,0.7 c-0.4,0.4-0.7,0.8-1,1.2c-0.2,0.2-0.4,0.4-0.6,0.7c-0.4,0.4-0.7,0.8-1,1.3c-0.2,0.2-0.3,0.4-0.5,0.6c0,0,0,0,0,0 c-0.3,0.4-0.7,0.9-1,1.3c-0.1,0.2-0.3,0.4-0.4,0.6c0,0,0,0,0,0c-0.1,0.1-0.2,0.3-0.3,0.4c0.2-4.7,0.7-9.3,1.5-13.9 c1.1-6.2,2.8-12.1,5.1-17.8C21.6,74.8,26.1,70.5,31.3,67.4z M7.5,170C7.5,170,7.6,170,7.5,170c1,1.7,2,3.3,3.2,4.8 c0.5,0.6,0.9,1.2,1.4,1.9c0.2,0.2,0.3,0.4,0.5,0.6c0.3,0.4,0.6,0.8,1,1.2c0.2,0.2,0.4,0.5,0.6,0.7c0.3,0.4,0.6,0.7,0.9,1.1 c0.2,0.3,0.5,0.5,0.7,0.8c0.1,0.2,0.3,0.3,0.4,0.5c-2.3,2.6-4,4.9-5.1,7.1c-2-6.4-3.3-12.7-3.8-18.9C7.4,169.8,7.5,169.9,7.5,170z M41.3,236.2C41.3,236.2,41.3,236.2,41.3,236.2c1.9,0,4-0.2,6.3-0.6c0.1,0.3,0.2,0.6,0.4,0.9c0.2,0.4,0.3,0.8,0.5,1.3 c0.1,0.4,0.3,0.7,0.4,1c0.2,0.4,0.3,0.8,0.5,1.2c0.3,0.7,0.7,1.5,1,2.2c0.9,1.9,1.9,3.7,2.9,5.4c-4.8-3.2-9.5-7.1-13.8-11.5 C40.1,236.1,40.7,236.2,41.3,236.2z M278,137.8c1.1-3.4,1.8-7.2,2.1-11.3c0.1,0.4,0.2,0.7,0.4,1.1c0.1,0.2,0.1,0.5,0.2,0.7 c0.1,0.4,0.2,0.8,0.3,1.2c0.1,0.2,0.1,0.5,0.2,0.7c0.1,0.4,0.2,0.8,0.3,1.2c0.1,0.3,0.1,0.5,0.2,0.8c0.1,0.4,0.2,0.8,0.2,1.1 c0.1,0.3,0.1,0.6,0.1,0.9c0.1,0.4,0.1,0.7,0.2,1.1c0,0.3,0.1,0.6,0.1,1c0,0.3,0.1,0.7,0.1,1c0,0.4,0.1,0.8,0.1,1.2 c0,0.1,0,0.2,0,0.3c0,1.2,0.1,2.4,0.1,3.6c-0.1,4.7-0.8,9.3-2.3,13.8C280,150,279.2,143.9,278,137.8z M2.4,142.4c0-0.2,0-0.5,0-0.7 c0-0.4,0-0.7,0.1-1.1c0-0.3,0-0.5,0.1-0.8c0-0.4,0.1-0.7,0.1-1.1c0-0.3,0.1-0.6,0.1-0.8c0-0.3,0.1-0.7,0.1-1c0-0.3,0.1-0.5,0.1-0.8 c0-0.1,0-0.1,0-0.2c0.1-0.3,0.1-0.6,0.2-0.9c0-0.2,0.1-0.5,0.1-0.7c0-0.1,0-0.2,0.1-0.3c0.1-0.3,0.1-0.5,0.2-0.8 c0.1-0.2,0.1-0.4,0.2-0.7c0-0.1,0.1-0.3,0.1-0.4c0.1-0.3,0.1-0.5,0.2-0.8c0.1-0.2,0.1-0.4,0.2-0.6c0-0.2,0.1-0.3,0.1-0.5 c0.1-0.2,0.2-0.5,0.2-0.7c0-0.1,0-0.1,0.1-0.2c0.3,5.9,1.1,12,2.3,18.2c-1.1,3.4-1.8,7.2-2.1,11.3c-0.1-0.2-0.2-0.4-0.2-0.7 c-0.1-0.4-0.2-0.8-0.4-1.2c-0.1-0.2-0.1-0.5-0.2-0.7c-0.1-0.4-0.2-0.7-0.3-1.1c0,0,0,0,0-0.1c-0.1-0.3-0.1-0.5-0.2-0.8 c-0.1-0.3-0.2-0.7-0.2-1c0,0,0-0.1,0-0.1c-0.1-0.3-0.1-0.5-0.2-0.8c-0.1-0.3-0.1-0.6-0.2-1c0-0.1,0-0.1,0-0.2c0,0,0-0.1,0-0.1 c0-0.2-0.1-0.5-0.1-0.7c0-0.3-0.1-0.6-0.1-0.9c0-0.1,0-0.1,0-0.2c0-0.1,0-0.1,0-0.2c0-0.2-0.1-0.4-0.1-0.6c0-0.3-0.1-0.6-0.1-0.9 c0-0.1,0-0.2,0-0.3c0-0.1,0-0.2,0-0.4c0,0,0,0,0,0c0-0.8-0.1-1.6-0.1-2.4c0-0.1,0-0.2,0-0.3c0,0,0,0,0,0 C2.4,143.7,2.4,143.1,2.4,142.4z M99.3,273.7c0.9,0,1.8,0,2.6-0.1c0.3,0,0.6,0,0.9-0.1c0.4,0,0.9,0,1.3-0.1 c4.6,2.4,9.4,4.5,14.3,6.2c2.3,0.8,4.6,1.5,6.9,2.1c-0.5-0.1-1.1-0.1-1.6-0.2c-2-0.3-3.9-0.6-5.6-0.9c-6.2-1.4-12.7-3.7-19.4-6.9 C99,273.7,99.2,273.7,99.3,273.7z M233.5,246c1-1.8,2-3.7,2.8-5.6c0.3-0.7,0.6-1.4,0.9-2.2c0.2-0.6,0.5-1.2,0.7-1.8 c0.1-0.1,0.1-0.3,0.2-0.4c0.2-0.6,0.4-1.2,0.7-1.9c0.1-0.1,0.1-0.3,0.2-0.4c0.2-0.6,0.4-1.2,0.6-1.8c0.1-0.2,0.1-0.4,0.2-0.5 c0.2-0.6,0.3-1.2,0.5-1.8c0.1-0.2,0.1-0.4,0.2-0.6c0.2-0.6,0.3-1.1,0.4-1.7c0.1-0.2,0.1-0.5,0.2-0.7c0.1-0.5,0.2-1,0.3-1.5 c5-1,9.6-2.7,13.9-5.3c2.9-1.7,5.6-3.8,8-6.2c-0.5,1-1.1,2-1.7,3c-1.9,2.9-4,6.2-6.1,9.2C249.5,233.5,242.1,240.3,233.5,246z M223.5,30.6c-3.3-1.5-6.5-2.5-9.7-3.2c-5.3-4.5-10.8-8.6-16.4-12.1c0.2,0,0.4,0.1,0.6,0.1c0.2,0,0.4,0.1,0.6,0.2 c0.4,0.1,0.9,0.2,1.3,0.3c0.2,0.1,0.4,0.1,0.6,0.2c0.4,0.1,0.9,0.2,1.3,0.4c0.2,0.1,0.4,0.2,0.7,0.2c0.4,0.1,0.8,0.3,1.2,0.4 c0.2,0.1,0.5,0.2,0.7,0.3c0.4,0.1,0.8,0.3,1.1,0.4c0.3,0.1,0.5,0.2,0.8,0.3c0.3,0.1,0.7,0.3,1,0.5c0.3,0.2,0.7,0.3,1,0.5 c0.1,0,0.2,0.1,0.3,0.1c1.4,0.8,2.9,1.6,4.4,2.5C217,24.1,220.4,27.1,223.5,30.6z M193.2,12.1c-0.2,0-0.5-0.1-0.7-0.1 c-0.2,0-0.4,0-0.6-0.1l-0.3-0.1l0,0c-0.7-0.4-1.4-0.8-2.1-1.1c0.7,0.3,1.5,0.5,2.2,0.8c0.5,0.2,1,0.4,1.6,0.6 C193.3,12.1,193.2,12.1,193.2,12.1z M131.1,3c3-0.2,5.9-0.2,8.9-0.1c-3.3,1-6.4,2.4-9.3,4.1c-4,2.4-7.6,5.4-10.7,9 c-0.3-0.1-0.6-0.2-1-0.3c-0.1,0-0.2-0.1-0.3-0.1c-0.7-0.2-1.4-0.4-2-0.6c-0.1,0-0.2,0-0.2-0.1c-0.7-0.2-1.4-0.4-2.1-0.5 c0,0-0.1,0-0.1,0c-0.7-0.2-1.5-0.3-2.2-0.5c0,0,0,0-0.1,0c-5.4-1.1-10.7-1.6-15.8-1.5c7.7-3.9,15.8-6.7,24.1-8.2 C123.9,3.8,128,3.3,131.1,3z M71.6,21.8l0.1-0.1c4.1-2.4,8.4-4.2,13.1-5.3c-4.7,3.1-9.1,6.6-13.2,10.5c-4.2,1.5-8.2,3.2-12.1,5.2 C63,27.9,67,24.5,71.6,21.8z M61.5,254.7c3.3,1.5,6.5,2.6,9.6,3.2c5.3,4.5,10.8,8.6,16.4,12.1c-0.2,0-0.4-0.1-0.5-0.1 c-0.3-0.1-0.6-0.1-0.9-0.2c-0.4-0.1-0.7-0.2-1.1-0.3c-0.3-0.1-0.6-0.2-0.9-0.3c-0.3-0.1-0.7-0.2-1-0.3c-0.3-0.1-0.6-0.2-0.9-0.3 c-0.3-0.1-0.6-0.2-1-0.3c-0.3-0.1-0.7-0.3-1-0.4c-0.3-0.1-0.6-0.2-0.9-0.3c-0.4-0.1-0.7-0.3-1.1-0.5c-0.2-0.1-0.5-0.2-0.8-0.3 c-0.4-0.2-0.8-0.4-1.2-0.6c-0.2-0.1-0.4-0.2-0.6-0.3c-0.5-0.3-1.1-0.6-1.6-0.9c-0.3-0.2-0.5-0.3-0.8-0.5 C69,261.9,65,258.7,61.5,254.7z M212.6,264.1c-0.7,0.4-1.4,0.7-2.1,1.1c-0.2,0.1-0.4,0.2-0.6,0.3c-0.3,0.1-0.6,0.3-0.8,0.4 c-0.3,0.1-0.6,0.3-0.9,0.4c-0.3,0.1-0.6,0.3-0.9,0.4c-0.3,0.1-0.6,0.3-0.9,0.4c-0.3,0.1-0.7,0.2-1,0.4c-0.3,0.1-0.6,0.2-0.9,0.3 c-0.3,0.1-0.7,0.2-1.1,0.3c-0.3,0.1-0.6,0.2-0.8,0.3c-0.4,0.1-0.7,0.2-1.1,0.3c-0.3,0.1-0.6,0.2-0.9,0.2c-0.1,0-0.3,0.1-0.4,0.1 c4.7-3.1,9.1-6.7,13.3-10.5c4.2-1.5,8.2-3.2,12.1-5.2c-3.5,4.2-7.6,7.6-12.2,10.4C213.1,263.8,212.9,263.9,212.6,264.1z M51.6,39.4 c-1,1.8-2,3.7-2.8,5.6c-0.3,0.7-0.6,1.5-0.9,2.2c-0.1,0.1-0.1,0.3-0.2,0.4c-0.2,0.6-0.5,1.2-0.7,1.9c-0.1,0.2-0.2,0.5-0.3,0.7 c-0.2,0.5-0.4,1-0.6,1.6c-0.1,0.3-0.2,0.6-0.3,1c-0.2,0.5-0.3,0.9-0.4,1.4c-0.1,0.4-0.2,0.7-0.3,1.1c-0.1,0.4-0.3,0.9-0.4,1.3 c-0.1,0.4-0.2,0.8-0.3,1.2c-0.1,0.4-0.2,0.8-0.3,1.3c-0.1,0.4-0.2,0.8-0.3,1.3c0,0.1,0,0.1,0,0.2c-5,1-9.6,2.7-13.9,5.3 c-2.9,1.7-5.6,3.8-8,6.2c0.9-1.6,1.8-3.2,2.7-4.8c1.9-2.9,4-5.9,6.1-8.6C36.4,51.1,43.4,44.7,51.6,39.4z M11.3,93.4 c-0.3,1.3-0.6,2.6-0.8,3.9c-1.1,5.9-1.6,11.9-1.6,18c-0.1,0.2-0.2,0.3-0.3,0.5c-0.2,0.3-0.4,0.6-0.5,0.8c-0.2,0.4-0.5,0.8-0.7,1.2 c-0.1,0.3-0.3,0.5-0.4,0.8c0,0,0,0,0,0c0.3-8.9,1.7-17,4.1-24.2C11.1,94.1,11.2,93.8,11.3,93.4z M90.6,12.8L90.6,12.8l-0.3,0.2 c-0.3,0-0.7,0.1-1,0.1c0.8-0.3,1.5-0.6,2.2-0.9c0.3-0.1,0.5-0.2,0.8-0.3C91.7,12.1,91.1,12.4,90.6,12.8z M228.9,33.3L228.9,33.3 l-0.3-0.2c-0.6-0.8-1.2-1.7-1.9-2.5c0,0,0.1,0.1,0.1,0.1c1.9,1.5,4.1,3.3,6.3,5.1C231.8,35,230.3,34.1,228.9,33.3z M91.9,273.3 c0.4,0.1,0.8,0.1,1.2,0.1l0.3,0.2l0,0c0.6,0.3,1.2,0.7,1.8,1c-0.7-0.2-1.4-0.5-2.1-0.7C92.7,273.6,92.3,273.4,91.9,273.3z M192.8,273.5c-0.1,0-0.1,0-0.2,0.1c0.6-0.3,1.2-0.7,1.8-1l0,0l0.3-0.1c0.1,0,0.2,0,0.3,0c0.4,0,0.7-0.1,1.1-0.2 C194.9,272.7,193.8,273.2,192.8,273.5C192.8,273.5,192.8,273.5,192.8,273.5z M56.2,32.3c-0.6,0.8-1.2,1.6-1.8,2.5L54.1,35l0,0 c-1.5,0.9-2.9,1.8-4.3,2.7c1.3-1.2,2.7-2.4,4-3.5C54.6,33.6,55.4,33,56.2,32.3z M3.8,162.6c0.2,0.5,0.4,0.9,0.6,1.4c0,0,0,0,0,0.1 c0.1,0.2,0.2,0.4,0.3,0.6l0,0.4h0c0,1.4,0.1,2.9,0.2,4.4l-0.1-0.6c-0.1-0.5-0.2-1.1-0.3-1.7C4.3,165.7,4.1,164.2,3.8,162.6z M51.8,249.3c1.4,1,2.9,1.9,4.4,2.7l0,0l0.3,0.2c0.6,0.9,1.3,1.7,1.9,2.5c-0.1-0.1-0.2-0.1-0.3-0.2c-0.1-0.1-0.1-0.1-0.2-0.2 C55.9,252.8,53.8,251,51.8,249.3z M228.9,253c0.6-0.8,1.2-1.6,1.8-2.5l0.3-0.2l0,0c1.6-0.9,3.1-1.9,4.6-2.9 c-1.3,1.1-2.6,2.2-3.9,3.3C230.8,251.5,229.8,252.2,228.9,253z M3.6,124.8l0.2-1.6c0,0,0,0,0,0c0.1-0.5,0.1-1,0.2-1.5 c0.2-1.1,0.4-2.3,0.6-3.4c-0.1,1.6-0.1,3.2-0.1,4.9h0l0,0.4c-0.4,0.9-0.7,1.7-1.1,2.6c0-0.4,0.1-0.7,0.1-1.1 C3.5,124.9,3.5,124.8,3.6,124.8z" fill="#fff"/></g></svg>