<?xml version="1.0" encoding="UTF-8" standalone="no"?><svg xmlns="http://www.w3.org/2000/svg" xmlns:xlink="http://www.w3.org/1999/xlink" fill="#0000ff" height="400" preserveAspectRatio="xMidYMid meet" version="1" viewBox="0.0 0.0 348.9 400.0" width="348.9" zoomAndPan="magnify"><g id="change1_1"><path d="M43.37,313.25h139.27c11.03,0,21.51-2.05,31-5.75c9.86-3.84,18.73-9.47,26.13-16.45c7.05-6.65,12.73-14.56,16.61-23.3 c3.71-8.37,5.76-17.52,5.76-27.08c0-9.56-2.05-18.72-5.76-27.08c-3.88-8.74-9.56-16.66-16.61-23.31 c-7.4-6.98-16.27-12.61-26.13-16.45c-9.5-3.7-19.98-5.75-31-5.75h-34.57l7.31,7.31l0.36,0.39c8.23,8.43,12.34,19.36,12.34,30.27 c0,11.1-4.23,22.2-12.7,30.66l-0.39,0.36c-8.42,8.22-19.35,12.34-30.28,12.34c-11.08,0-22.17-4.24-30.63-12.7 c-0.01,0-74.86-74.42-81.23-81.23c-3.96-3.93-7.19-8.65-9.41-13.9C1.23,136.37,0,130.66,0,124.71c0-5.95,1.23-11.66,3.44-16.88 c2.28-5.38,5.6-10.19,9.7-14.18L94.06,12.7C102.52,4.23,113.62,0,124.72,0c11.1,0,22.2,4.23,30.66,12.7 c8.46,8.46,12.7,19.57,12.7,30.66c0,11.09-4.23,22.2-12.7,30.66l-7.31,7.31h34.58c22.13,0,43.32,4.23,62.72,11.88 c20.18,7.96,38.4,19.61,53.71,34.05c15.65,14.77,28.29,32.43,36.91,52.05l0.14,0.34c8.23,18.84,12.77,39.45,12.77,61.02 c0,21.69-4.6,42.41-12.91,61.34v0.02c-8.62,19.61-21.25,37.27-36.91,52.05c-15.31,14.44-33.53,26.09-53.71,34.05 c-19.4,7.65-40.6,11.88-62.72,11.88H16.4c-4.52,0-8.62-1.85-11.59-4.81l-0.41-0.46C1.68,391.8,0,387.89,0,383.6v-53.95 c0-4.5,1.85-8.59,4.81-11.56v-0.03c2.97-2.97,7.07-4.81,11.59-4.81L43.37,313.25L43.37,313.25z M66.97,326.15H16.4 c-0.95,0-1.83,0.4-2.47,1.03c-0.64,0.62-1.03,1.5-1.03,2.47v53.95c0,0.87,0.32,1.67,0.83,2.28l0.2,0.19 c0.64,0.64,1.52,1.03,2.47,1.03h166.24c20.51,0,40.12-3.91,58.04-10.97c18.62-7.34,35.45-18.1,49.57-31.43 c14.39-13.58,26.01-29.82,33.93-47.86c7.6-17.29,11.8-36.27,11.8-56.17c0-19.79-4.15-38.66-11.66-55.88l-0.14-0.29 c-7.93-18.04-19.54-34.28-33.93-47.86c-14.13-13.33-30.95-24.09-49.57-31.43c-17.92-7.06-37.53-10.97-58.04-10.97H132.5 c-1.65,0-3.3-0.63-4.56-1.89c-2.52-2.52-2.52-6.6,0-9.12l18.32-18.32c5.94-5.94,8.92-13.74,8.92-21.54c0-7.8-2.97-15.6-8.92-21.54 s-13.74-8.92-21.54-8.92c-7.8,0-15.6,2.97-21.54,8.92L22.17,102.8c-2.93,2.84-5.29,6.24-6.89,10.02c-1.53,3.61-2.38,7.63-2.38,11.89 c0,4.26,0.85,8.28,2.38,11.89c1.54,3.64,3.79,6.94,6.58,9.71l81.32,81.29c5.93,5.95,13.74,8.92,21.54,8.92 c7.68,0,15.35-2.87,21.25-8.6l0.29-0.31c5.94-5.94,8.92-13.74,8.92-21.54c0-7.68-2.87-15.36-8.6-21.24l-18.55-18.53 c-1.22-1.17-1.98-2.82-1.98-4.65c0-3.56,2.89-6.45,6.45-6.45h50.14c12.6,0,24.64,2.37,35.64,6.65 c11.46,4.46,21.74,10.99,30.31,19.07c8.3,7.83,15,17.16,19.58,27.49c4.42,9.98,6.87,20.89,6.87,32.27c0,11.38-2.45,22.29-6.87,32.27 c-4.58,10.32-11.28,19.66-19.58,27.49c-8.57,8.08-18.85,14.61-30.31,19.07c-11,4.28-23.05,6.65-35.64,6.65L66.97,326.15 L66.97,326.15z"/></g></svg>